<svg id="Layer_1" data-name="Layer 1" xmlns="http://www.w3.org/2000/svg" viewBox="0 0 94 62"><defs><style>.cls-1{fill:#fff;}.cls-2{fill:none;stroke:#000;stroke-width:0.25px;}</style></defs><title>art</title><rect class="cls-1" x="35.2" y="-8.58" width="28.54" height="78.55" transform="translate(8.11 71.67) rotate(-76.56)"/><rect class="cls-2" x="35.31" y="-8.56" width="28.54" height="78.58" transform="translate(8.17 71.81) rotate(-76.56)"/><path d="M28.67,33.1,16.91,30.29,12.7,36.51l-4.33-1L25.23,10.42l5,1.2,3.71,30-4.32-1Zm-.51-4.25L26.53,16,19.32,26.74Z"/><path d="M55.46,35.17l2.28,12.1L53,46.13,51,34.86l-.49-.12-6.6-1.58L41.42,43.37l-4.52-1.08,6.58-27.51,11.19,2.67c7.59,1.81,8.74,6.42,7.65,11C61.51,31.85,59.58,34.71,55.46,35.17ZM51,30.7c4,1,6-.24,6.78-3.35s-.55-5.1-4.45-6l-6.3-1.51-2.25,9.41Z"/><path d="M89,25.66l-1,4-9.49-2.27L73,50.91l-4.52-1.08,5.61-23.49L65,24.16l1-4Z"/></svg>