<svg id="Layer_1" data-name="Layer 1" xmlns="http://www.w3.org/2000/svg" viewBox="0 0 235 85"><defs><style>.cls-1{fill:#fff;}.cls-2{fill:none;stroke:#000;stroke-width:0.25px;}</style></defs><title>concerts</title><rect class="cls-1" x="102.98" y="-65.53" width="28.54" height="215.89" transform="translate(50.37 147.65) rotate(-77.45)"/><path d="M13.61,21.33l.84-3.77c1.67-7.5,7.14-11.44,15.07-9.68,7.31,1.63,10.67,6.85,9.76,13.6l-4.49-1c.54-4.56-1.28-7.56-6.15-8.64-5.48-1.22-8.47,1.43-9.72,7L18.21,22C17,27.63,18.55,31.3,24,32.52c5,1.12,7.94-1,9.35-5.55l4.49,1c-1.94,6.72-7.26,10.18-14.73,8.51C15.23,34.72,11.94,28.83,13.61,21.33Z"/><path d="M40.81,27.38l.84-3.77c1.67-7.5,7.14-11.44,15.07-9.68s11.21,7.65,9.54,15.15l-.84,3.77c-1.67,7.5-7.14,11.44-15.06,9.68S39.14,34.88,40.81,27.38Zm20.14,4.16.7-3.16c1.25-5.6-.33-9.27-5.82-10.49s-8.47,1.43-9.72,7l-.7,3.16c-1.25,5.6.33,9.27,5.82,10.49S59.7,37.14,60.95,31.54Z"/><path d="M96.56,23.32,90.41,50.93l-5.1-1.14L76.58,26.35,72,46.84l-4.53-1,6.15-27.61,5.1,1.14,8.76,23.33L92,22.31Z"/><path d="M97.79,40.07l.84-3.77c1.67-7.5,7.14-11.44,15.06-9.68,7.31,1.63,10.67,6.85,9.76,13.61l-4.49-1c.54-4.56-1.28-7.56-6.15-8.64-5.48-1.22-8.47,1.43-9.72,7l-.7,3.16c-1.25,5.6.33,9.27,5.82,10.49,5,1.12,7.94-1,9.35-5.55l4.49,1c-1.94,6.72-7.26,10.18-14.73,8.51C99.41,53.46,96.12,47.57,97.79,40.07Z"/><path d="M150.15,35.25l-.92,4.15-15.73-3.5-1.59,7.16,14.51,3.23-.92,4.15L131,47.21l-1.78,8,15.73,3.5L144,62.86l-20.26-4.51,6.15-27.61Z"/><path d="M167.16,56.51l2.47,12.06-4.8-1.07-2.18-11.24-.5-.11-6.63-1.48-2.28,10.25-4.53-1,6.15-27.61,11.24,2.5c7.62,1.7,8.83,6.28,7.82,10.85C173.16,53.09,171.28,56,167.16,56.51Zm-4.5-4.4c4,.89,6-.34,6.72-3.46s-.62-5.1-4.55-6l-6.32-1.41-2.1,9.44Z"/><path d="M200.58,46.48l-.9,4-9.52-2.12L184.91,72l-4.53-1,5.25-23.57-9.14-2,.9-4Z"/><path d="M222.49,60.27l-4.53-1c.18-3.32-.94-5.48-5.32-6.46-4.72-1.05-6.57.78-7,2.79-.38,1.71.34,3,2.87,4.16l6,2.9c3.94,1.88,6.88,4.49,5.82,9.25-1.2,5.41-6.06,7.12-12.54,5.68C200,75.85,197.63,71.24,198.19,66l4.46,1c.09,3.74,2.42,5.82,6.16,6.65,2.71.6,6.27.56,6.95-2.49.49-2.21-1.08-3.4-3.46-4.57l-6.17-3c-4.26-2.07-5.94-4.92-5.07-8.84,1-4.69,4.92-7.58,12.39-5.92C221.29,50.57,223.31,55.17,222.49,60.27Z"/><rect class="cls-2" x="103.3" y="-65.5" width="28.54" height="215.98" transform="translate(50.56 148.02) rotate(-77.45)"/></svg>