<svg id="Layer_1" data-name="Layer 1" xmlns="http://www.w3.org/2000/svg" viewBox="0 0 176 62"><defs><style>.cls-1{fill:#fff;}.cls-2{fill:none;stroke:#000;stroke-width:0.25px;}</style></defs><title>events</title><rect class="cls-1" x="73.62" y="-47.27" width="28.54" height="157.13" transform="matrix(0.16, -0.99, 0.99, 0.16, 42.74, 112.94)"/><path d="M36.78,8.53l-.69,4.2-15.9-2.62L19,17.35l14.67,2.41L33,24,18.31,21.55,17,29.63l15.9,2.62-.69,4.2L11.71,33.07,16.3,5.16Z"/><path d="M64.62,13.11l-15,26.2-5.24-.86L38.59,8.83l4.62.76,4.65,23.9L60,12.35Z"/><path d="M88.34,17l-.69,4.2L71.75,18.6l-1.19,7.24,14.67,2.41-.69,4.2L69.87,30l-1.33,8.08,15.9,2.62-.69,4.2L63.26,41.56l4.59-27.91Z"/><path d="M116.29,21.62,111.7,49.53l-5.16-.85-10-22.92L93.1,46.47l-4.58-.75L93.12,17.8l5.16.85,10,22.81,3.39-20.6Z"/><path d="M143,26l-.67,4.08-9.62-1.58-3.92,23.83-4.58-.75,3.92-23.83-9.24-1.52.67-4.08Z"/><path d="M165.63,38.55,161,37.8c0-3.32-1.24-5.42-5.67-6.15-4.77-.79-6.52,1.14-6.85,3.18-.28,1.73.51,2.93,3.1,4l6.18,2.56c4,1.65,7.12,4.1,6.32,8.91-.9,5.47-5.66,7.45-12.2,6.38-7.89-1.3-10.52-5.76-10.25-11l4.5.74c.3,3.73,2.74,5.67,6.52,6.29,2.73.45,6.29.2,6.8-2.87.37-2.23-1.27-3.33-3.71-4.37l-6.32-2.66c-4.37-1.83-6.21-4.58-5.55-8.55.78-4.74,4.49-7.84,12-6.6C163.89,28.94,166.16,33.42,165.63,38.55Z"/><rect class="cls-2" x="73.86" y="-47.26" width="28.54" height="157.2" transform="matrix(0.16, -0.99, 0.99, 0.16, 42.9, 113.21)"/></svg>