<svg id="Layer_1" data-name="Layer 1" xmlns="http://www.w3.org/2000/svg" viewBox="0 0 101 88"><defs><style>.cls-1{fill:#fff;}.cls-2{fill:none;stroke:#000;stroke-width:0.25px;}</style></defs><title>fun</title><rect class="cls-1" x="36.61" y="2.93" width="28.54" height="81.32" transform="translate(-14.76 57.01) rotate(-52.14)"/><rect class="cls-2" x="36.71" y="2.99" width="28.54" height="81.36" transform="translate(-14.79 57.11) rotate(-52.14)"/><path d="M45.67,21.61,43.06,25,31.39,15.89,26.65,22,37.33,30.3l-2.61,3.36L24,25.34l-7.4,9.52L13,32,30.33,9.68Z"/><path d="M38.32,37.49,48.79,24l3.67,2.85L42.63,39.5c-3.26,4.19-4.19,7.81.4,11.38s7.87,1.77,11.12-2.42L64,35.83l3.67,2.85L57.17,52.14c-3.74,4.8-8.87,8-16.63,1.94S34.58,42.29,38.32,37.49Z"/><path d="M90.53,56.48,73.16,78.81,69,75.6l2.13-24.93L58.29,67.24l-3.67-2.85L72,42.06l4.13,3.21L74,70.11,86.86,53.63Z"/></svg>