<svg id="Layer_1" data-name="Layer 1" xmlns="http://www.w3.org/2000/svg" viewBox="0 0 310 104"><defs><style>.cls-1{fill:#fff;}.cls-2{fill:none;stroke:#000;stroke-width:0.25px;}</style></defs><title>fyrirlestrar</title><rect class="cls-1" x="9.06" y="37.75" width="292.11" height="28.54" transform="translate(-6.99 29.91) rotate(-10.77)"/><rect class="cls-2" x="9.43" y="37.67" width="292.23" height="28.54" transform="translate(-6.97 29.99) rotate(-10.77)"/><path d="M31.67,61.17l.8,4.18L17.94,68.11l1.44,7.59,13.3-2.53.8,4.18-13.3,2.53,2.25,11.84-4.56.87L12.58,64.8Z"/><path d="M46,77.16,32.86,60.94,37.81,60l9.5,11.93,4.49-14.6,4.94-.94L50.52,76.29,52.37,86l-4.56.87Z"/><path d="M78.75,69.57l7,10.1L81,80.58l-6.45-9.46-.5.1-6.67,1.27,2,10.31-4.56.87L59.46,55.88l11.31-2.15c7.66-1.46,10.6,2.27,11.47,6.87C82.9,64.05,82.32,67.46,78.75,69.57Zm-5.87-2.26c4-.77,5.4-2.7,4.81-5.84S75.09,57,71.15,57.79L64.78,59l1.81,9.51Z"/><path d="M89.63,50.14l5.29,27.79-4.56.87L85.07,51Z"/><path d="M115.09,62.65l7,10.1-4.83.92-6.45-9.46-.5.09-6.67,1.27,2,10.31-4.56.87L95.8,49l11.31-2.15c7.67-1.46,10.6,2.27,11.47,6.87C119.24,57.14,118.66,60.54,115.09,62.65Zm-5.87-2.26c4-.77,5.4-2.7,4.81-5.84s-2.59-4.43-6.54-3.68l-6.36,1.21,1.81,9.51Z"/><path d="M130.46,66.84l15.68-3,.79,4.18L126.7,71.88l-5.29-27.79,4.56-.87Z"/><path d="M165.68,35.67l.8,4.18-15.83,3,1.37,7.2,14.6-2.78.79,4.18-14.6,2.78,1.53,8,15.83-3,.8,4.18-20.39,3.88-5.29-27.79Z"/><path d="M192.8,39.37l-4.56.87c-1.15-3.12-3-4.67-7.44-3.83-4.75.9-5.72,3.31-5.34,5.35.33,1.72,1.48,2.58,4.28,2.68l6.69.28c4.36.16,8.09,1.4,9,6.19,1,5.44-2.75,8.94-9.26,10.18-7.86,1.5-11.86-1.79-13.41-6.82l4.48-.85c1.56,3.4,4.53,4.38,8.28,3.67,2.72-.52,6-2,5.4-5-.42-2.22-2.34-2.69-5-2.83l-6.85-.32c-4.73-.21-7.4-2.17-8.15-6.11-.9-4.72,1.52-8.91,9-10.34C187.86,30.93,191.53,34.36,192.8,39.37Z"/><path d="M216.63,26,217.4,30l-9.58,1.82,4.52,23.73-4.56.87-4.51-23.73-9.2,1.75-.77-4.06Z"/><path d="M239.14,39l7,10.1-4.83.92-6.45-9.46-.5.09L227.74,42l2,10.31-4.56.87-5.29-27.79,11.31-2.15c7.67-1.46,10.6,2.27,11.48,6.87C243.29,33.53,242.71,36.94,239.14,39Zm-5.87-2.26c4-.77,5.41-2.7,4.81-5.84s-2.59-4.43-6.54-3.68l-6.36,1.21L227,38Z"/><path d="M265.11,38.39l-11.88,2.26L251.93,48l-4.37.83,5.1-29.76,5.06-1L273.4,44,269,44.8Zm-2.21-3.67-6.75-11L254,36.42Z"/><path d="M290.39,29.29l7,10.1-4.83.92-6.45-9.46-.5.09L279,32.22l2,10.31-4.56.87L271.1,15.61l11.31-2.15c7.67-1.46,10.6,2.27,11.48,6.87C294.54,23.78,294,27.19,290.39,29.29ZM284.52,27c4-.77,5.41-2.7,4.81-5.84s-2.59-4.43-6.54-3.68l-6.36,1.21,1.81,9.51Z"/></svg>