<svg id="Layer_1" data-name="Layer 1" xmlns="http://www.w3.org/2000/svg" viewBox="0 0 136 116"><defs><style>.cls-1{fill:#fff;}.cls-2{fill:none;stroke:#000;stroke-width:0.25px;}</style></defs><title>gaman</title><rect class="cls-1" x="53.66" y="-15.32" width="28.54" height="144.77" transform="translate(-18.82 75.67) rotate(-52.14)"/><rect class="cls-2" x="53.83" y="-15.21" width="28.54" height="144.83" transform="translate(-18.86 75.86) rotate(-52.14)"/><path d="M11.29,15.46l2.37-3C18.38,6.34,25,5.12,31.42,10.1c5.58,4.33,6.65,10,3.68,15.42l-3.7-2.87c1.71-3.47,1.07-6.58-2.48-9.34C24.5,9.86,20.66,11,17.14,15.51l-2,2.56c-3.52,4.53-3.66,8.52.78,12,3.85,3,7.74,3,10.49-.59l.62-.8L19.83,23l2.47-3.17,10.9,8.48L23.7,40.57,21,38.51l1.87-3.29c-2.65,1.3-6.12.63-9.63-2.1C7.09,28.3,6.58,21.53,11.29,15.46Z"/><path d="M45,48.2,35.4,40.78,29,44.69,25.49,42,51.2,26.12l4.07,3.16-9,28.82-3.51-2.73Zm1.3-4.08,3.82-12.35-11,6.77Z"/><path d="M87.76,54.55,70.4,76.88,66.74,74,79.48,57.64,65.29,64.06l-3-2.3,2.72-15.33L52.32,62.82,48.65,60,66,37.64,70.3,41,66.93,58.91l16.55-7.69Z"/><path d="M92.27,85l-9.55-7.42-6.41,3.92-3.51-2.73L98.52,62.91l4.07,3.16-9,28.82-3.51-2.73Zm1.29-4.08,3.82-12.35-11,6.77Z"/><path d="M131.88,88.84l-17.36,22.33L110.39,108,112.52,83,99.64,99.61,96,96.76l17.36-22.33,4.13,3.21-2.06,24.84L128.21,86Z"/></svg>