<svg id="Layer_1" data-name="Layer 1" xmlns="http://www.w3.org/2000/svg" viewBox="0 0 97 65"><defs><style>.cls-1{fill:#fff;}.cls-2{fill:none;stroke:#000;stroke-width:0.25px;}</style></defs><title>list</title><rect class="cls-1" x="33.37" y="-11.3" width="28.54" height="87.66" transform="translate(-1.38 62.94) rotate(-66.14)"/><rect class="cls-2" x="33.49" y="-11.26" width="28.54" height="87.69" transform="translate(-1.36 63.08) rotate(-66.14)"/><path d="M11.11,27.25l14.59,6.46L24,37.59,5.15,29.26,16.59,3.39l4.25,1.88Z"/><path d="M43.07,15.1,31.63,41l-4.25-1.88L38.82,13.22Z"/><path d="M64.6,34.14l-4.25-1.88c.83-3.22.16-5.56-3.95-7.38-4.42-2-6.59-.53-7.43,1.36-.71,1.61-.24,3,2,4.64l5.34,4c3.5,2.61,5.86,5.75,3.89,10.21-2.24,5.07-7.34,5.8-13.41,3.12C39.49,45,38.06,40,39.64,35l4.17,1.85c-.65,3.68,1.24,6.18,4.73,7.72,2.53,1.12,6,1.78,7.3-1.08.92-2.07-.39-3.55-2.5-5.16L47.9,34.18c-3.77-2.86-4.86-6-3.23-9.66C46.61,20.12,51,18,58,21.14,65.33,24.39,66.4,29.3,64.6,34.14Z"/><path d="M91.82,36.66l-1.67,3.78L81.22,36.5,71.45,58.59l-4.25-1.88L77,34.62l-8.56-3.79L70.08,27Z"/></svg>