<svg id="Layer_1" data-name="Layer 1" xmlns="http://www.w3.org/2000/svg" viewBox="0 0 286 118"><defs><style>.cls-1{fill:#fff;}.cls-2{fill:none;stroke:#000;stroke-width:0.25px;}</style></defs><title>listasmidjur</title><rect class="cls-1" x="-2.06" y="44.74" width="288.59" height="28.54" transform="translate(-11.18 45.75) rotate(-17.59)"/><path d="M15.51,109.55l15.21-4.82L32,108.78,12.36,115,3.81,88l4.43-1.4Z"/><path d="M31.41,79.29l8.55,27-4.42,1.4L27,80.69Z"/><path d="M60.15,79.31l-4.43,1.4c-1.51-3-3.56-4.27-7.84-2.92-4.61,1.46-5.29,4-4.67,5.94.53,1.67,1.78,2.38,4.57,2.15l6.67-.52c4.35-.36,8.2.43,9.67,5.08,1.67,5.28-1.67,9.21-8,11.21-7.62,2.42-12-.37-14.13-5.18l4.35-1.38c2,3.19,5,3.81,8.66,2.66,2.64-.84,5.7-2.67,4.76-5.64-.68-2.16-2.64-2.4-5.29-2.21l-6.84.49c-4.72.35-7.61-1.27-8.82-5.1-1.45-4.57.45-9,7.74-11.34C54.25,71.52,58.3,74.49,60.15,79.31Z"/><path d="M82.22,63.18l1.25,3.94-9.3,2.95,7.3,23L77,94.5l-7.3-23L60.82,74.3l-1.25-3.94Z"/><path d="M107,77.64,95.46,81.29l-.41,7.5-4.24,1.34L92.34,60l4.91-1.56,18.63,23.77-4.24,1.34Zm-2.63-3.38-8-10.15L95.69,77Z"/><path d="M133,56.21l-4.43,1.4c-1.51-3-3.56-4.27-7.84-2.92-4.61,1.46-5.29,4-4.67,5.94.53,1.67,1.78,2.38,4.57,2.15l6.67-.52c4.35-.36,8.2.43,9.67,5.08,1.67,5.28-1.67,9.21-8,11.21-7.63,2.42-12-.37-14.13-5.18L119.2,72c2,3.19,5,3.81,8.66,2.66,2.64-.84,5.7-2.67,4.76-5.64-.68-2.16-2.64-2.4-5.29-2.21l-6.84.49c-4.72.35-7.61-1.27-8.82-5.1-1.45-4.57.45-9,7.74-11.34C127.08,48.43,131.13,51.4,133,56.21Z"/><path d="M161.53,38l8.55,27-4.43,1.4-6.27-19.79-2.76,15.32L153,63.07,142,52.14l6.27,19.79-4.43,1.4-8.55-27,5.17-1.64L153.3,57.67l3.05-18Z"/><path d="M171.94,34.74l8.55,27-4.43,1.4-8.55-27Z"/><path d="M205.43,37.34l.93,2.94c1.52,4.8,3,12.27-8.35,15.87l-9.52,3L184.63,47l-5,1.58-1.2-3.79,5-1.58-3.49-11,9.52-3C200.8,25.58,203.91,32.54,205.43,37.34Zm-4.57,1.08c-1.26-4-3.48-7.49-10.18-5.37l-5.1,1.62,2.26,7.14,5.36-1.7,1.2,3.79-5.36,1.7,2.62,8.26,5.1-1.62c6.7-2.12,6.46-6.35,5.23-10.21Z"/><path d="M210.2,44.87l-.77-2.42,4.35-1.38.52,1.64c.91,2.86,2.95,3.61,6,2.64s4.25-2.86,2.87-7.21l-5.66-17.85,4.43-1.4,5.78,18.22c1.47,4.65,1.18,9.78-6.23,12.13C215.13,51.25,211.44,48.78,210.2,44.87Z"/><path d="M231.48,33.75l-5.15-16.25,4.42-1.4,4.84,15.25c1.6,5.06,4.05,7.88,9.6,6.13s5.92-5.48,4.31-10.54l-4.84-15.25,4.43-1.4,5.15,16.25c1.84,5.8,1.54,11.83-7.83,14.8S233.32,39.55,231.48,33.75Z"/><path d="M275.11,19.91l8.19,9.19-4.69,1.48L271.09,22l-.48.15-6.47,2.05,3.17,10-4.43,1.4-8.55-27,11-3.48c7.44-2.36,10.79,1,12.21,5.46C278.58,13.94,278.4,17.39,275.11,19.91ZM269,18.37c3.9-1.24,5-3.32,4.08-6.37S270,7.9,266.16,9.12l-6.17,2,2.93,9.22Z"/><rect class="cls-2" x="-2.06" y="44.74" width="288.62" height="28.54" transform="translate(-11.18 45.75) rotate(-17.59)"/></svg>