<svg id="Layer_1" data-name="Layer 1" xmlns="http://www.w3.org/2000/svg" viewBox="0 0 182 90"><defs><style>.cls-1{fill:#fff;}.cls-2{fill:none;stroke:#000;stroke-width:0.25px;}</style></defs><title>shows</title><rect class="cls-1" x="15.08" y="31.18" width="151.21" height="28.54" transform="translate(-5.14 12.18) rotate(-7.47)"/><rect class="cls-2" x="15.28" y="31.15" width="151.27" height="28.54" transform="translate(-5.13 12.21) rotate(-7.47)"/><path d="M39.57,46.72l-4.6.6c-1-3.18-2.76-4.83-7.21-4.25-4.8.63-5.91,3-5.64,5,.23,1.74,1.33,2.66,4.12,2.92l6.66.66c4.34.41,8,1.86,8.63,6.7.72,5.49-3.26,8.77-9.83,9.63-7.93,1-11.74-2.47-13-7.58l4.53-.59c1.36,3.48,4.27,4.64,8.06,4.14,2.75-.36,6.08-1.62,5.68-4.72-.29-2.24-2.18-2.82-4.81-3.11l-6.82-.72c-4.71-.48-7.27-2.59-7.79-6.57-.62-4.76,2-8.81,9.61-9.8C35.12,38,38.59,41.65,39.57,46.72Z"/><path d="M50.13,51.9l1.7,13-4.6.6-3.68-28,4.6-.6,1.44,11,13.27-1.74-1.44-11,4.6-.6,3.68,28-4.6.6-1.7-13Z"/><path d="M72.91,49.78,72.41,46c-1-7.62,2.79-13.2,10.84-14.25s13.15,3.35,14.15,11l.5,3.83c1,7.62-2.79,13.2-10.84,14.25S73.91,57.4,72.91,49.78Zm20.35-3-.42-3.21c-.74-5.69-3.49-8.59-9.06-7.86S76.31,40,77.06,45.66l.42,3.21c.75,5.69,3.49,8.59,9.06,7.86S94,52.49,93.26,46.8Z"/><path d="M139,24.91l-4.83,29.16-5.26.69-9.54-20-4.07,21.74-5.26.69L97.79,30.31l4.64-.61,9.21,20.75L116,27.92l4.76-.62,10,20.65,3.55-22.42Z"/><path d="M164.42,30.34l-4.6.6c-1-3.18-2.76-4.83-7.21-4.25-4.8.63-5.91,3-5.64,5,.23,1.74,1.33,2.66,4.12,2.92l6.66.66c4.34.42,8,1.86,8.63,6.7.72,5.49-3.26,8.77-9.83,9.63-7.93,1-11.74-2.47-13-7.58l4.53-.59c1.36,3.48,4.27,4.64,8.06,4.14,2.75-.36,6.08-1.62,5.68-4.72-.29-2.24-2.18-2.82-4.81-3.11l-6.82-.72c-4.71-.48-7.27-2.59-7.79-6.57-.62-4.76,2-8.81,9.61-9.8C160,21.64,163.44,25.28,164.42,30.34Z"/></svg>