<svg id="Layer_1" data-name="Layer 1" xmlns="http://www.w3.org/2000/svg" viewBox="0 0 231 112"><defs><style>.cls-1{fill:#fff;}.cls-2{fill:none;stroke:#000;stroke-width:0.25px;}</style></defs><title>syningar</title><rect class="cls-1" x="103.09" y="-45.6" width="28.54" height="202.99" transform="translate(43.21 162.66) rotate(-80.69)"/><rect class="cls-2" x="103.4" y="-45.59" width="28.54" height="203.07" transform="translate(43.42 163.01) rotate(-80.69)"/><path d="M42.51,38.16l-4.58-.75c0-3.32-1.25-5.42-5.67-6.15-4.78-.78-6.51,1.15-6.85,3.19-.29,1.73.51,2.93,3.1,4L34.69,41c4,1.65,7.12,4.09,6.33,8.91-.9,5.47-5.65,7.45-12.2,6.38-7.89-1.29-10.52-5.76-10.25-11l4.51.74c.3,3.73,2.75,5.67,6.52,6.29,2.73.45,6.29.2,6.8-2.88.37-2.23-1.27-3.33-3.71-4.37l-6.33-2.66c-4.37-1.82-6.21-4.58-5.56-8.54.78-4.74,4.49-7.84,12-6.6C40.77,28.54,43,33,42.51,38.16Z"/><path d="M52.27,49.56,45.54,29.84l5,.81,4.82,14.47L64.56,33l5,.81L56.85,50.31l-1.6,9.78-4.58-.75ZM64.33,23.23l-5.23,6.06-4-.65,4.57-6.17Z"/><path d="M95.44,38,90.86,65.94l-5.16-.85-10-22.92-3.4,20.71-4.58-.75,4.58-27.92,5.16.85,10.06,22.8,3.38-20.6Z"/><path d="M106.22,39.79,101.65,67.7,97.06,67,101.64,39Z"/><path d="M135.6,44.61,131,72.52l-5.16-.85-10-22.92-3.4,20.72-4.58-.75,4.58-27.91,5.16.84,10.06,22.8L131,43.86Z"/><path d="M137.74,61.25l.63-3.81c1.24-7.59,6.49-11.83,14.49-10.51,7,1.14,10.62,5.62,10.6,11.78l-4.62-.76c-.16-3.86-2.21-6.29-6.64-7-5.54-.91-8.38,1.91-9.31,7.57l-.52,3.2c-.93,5.66.86,9.23,6.4,10.14,4.81.79,8.21-1.11,8.93-5.53l.16-1-9-1.48.65-4,13.63,2.23-2.51,15.29-3.31-.54.07-3.78c-1.7,2.41-5.08,3.48-9.47,2.76C140.19,74.54,136.5,68.83,137.74,61.25Z"/><path d="M183,73.92,171,72l-3.75,6.5-4.39-.72,15-26.2,5.08.83L188.82,82l-4.39-.72Zm-.81-4.2L179.59,57l-6.42,11.2Z"/><path d="M209.82,74.06,213,86l-4.85-.8-2.81-11.1-.5-.08-6.7-1.1-1.7,10.36-4.58-.75,4.58-27.91,11.36,1.86c7.7,1.26,9.17,5.78,8.42,10.4C215.62,70.3,213.9,73.3,209.82,74.06Zm-4.74-4.14c4,.66,6-.68,6.52-3.83s-.91-5.05-4.88-5.7l-6.39-1-1.57,9.55Z"/></svg>