<svg id="Layer_1" data-name="Layer 1" xmlns="http://www.w3.org/2000/svg" viewBox="0 0 152 82"><defs><style>.cls-1{fill:#fff;}.cls-2{fill:none;stroke:#000;stroke-width:0.25px;}</style></defs><title>talks</title><rect class="cls-1" x="61.53" y="-23.1" width="28.54" height="127.39" transform="translate(23.45 108.8) rotate(-80.66)"/><rect class="cls-2" x="61.72" y="-23.1" width="28.54" height="127.44" transform="translate(23.58 109.01) rotate(-80.66)"/><path d="M39.31,20.31l-.67,4.08L29,22.81,25.1,46.64l-4.58-.75,3.92-23.83L15.2,20.54l.67-4.08Z"/><path d="M54.85,44.42l-11.93-2L39.16,49l-4.39-.72,15-26.2,5.08.84L60.72,52.5l-4.39-.72ZM54,40.21,51.5,27.53l-6.43,11.2Z"/><path d="M69,49.55l15.75,2.59-.69,4.2L63.72,53l4.59-27.91,4.58.75Z"/><path d="M98.54,45.43l-4.85,3.79-1.39,8.47-4.58-.75L92.3,29l4.58.75L94.7,43.06,109,31.76l5.85,1-12.7,9.93,8.15,18-5.35-.88Z"/><path d="M137.52,45.28l-4.58-.75c0-3.32-1.24-5.42-5.67-6.15-4.78-.78-6.52,1.14-6.85,3.18-.28,1.73.51,2.93,3.1,4l6.18,2.56c4,1.65,7.12,4.1,6.33,8.91-.9,5.47-5.65,7.45-12.2,6.38-7.89-1.3-10.52-5.76-10.25-11l4.5.74c.3,3.73,2.74,5.67,6.52,6.29,2.73.45,6.29.2,6.8-2.88.37-2.23-1.27-3.33-3.71-4.37l-6.32-2.66c-4.37-1.82-6.21-4.58-5.56-8.54.78-4.74,4.49-7.84,12-6.6C135.77,35.66,138,40.14,137.52,45.28Z"/></svg>