<svg id="Layer_1" data-name="Layer 1" xmlns="http://www.w3.org/2000/svg" viewBox="0 0 227 80"><defs><style>.cls-1{fill:#fff;}.cls-2{fill:none;stroke:#000;stroke-width:0.25px;}</style></defs><title>tonleikar</title><rect class="cls-1" x="98.16" y="-72.08" width="28.54" height="222.41" transform="translate(49.82 140.37) rotate(-77.45)"/><path d="M30.77,6.46l-.9,4L20.35,8.38,15.11,32l-4.53-1L15.82,7.37l-9.14-2,.9-4Z"/><path d="M29.08,22.55l.84-3.77C31.58,11.28,37.06,7.34,45,9.1s11.21,7.65,9.54,15.15L53.68,28C52,35.53,46.53,39.47,38.61,37.7S27.41,30.05,29.08,22.55Zm20.14,4.16.7-3.16c1.25-5.6-.33-9.27-5.82-10.49s-8.47,1.43-9.72,7l-.7,3.16c-1.25,5.6.34,9.27,5.82,10.49S48,32.31,49.21,26.71ZM52.13,1.42,46.57,7.18,42.64,6.3,47.56.4Z"/><path d="M84.82,18.49,78.68,46.1,73.57,45,64.84,21.52,60.28,42l-4.53-1L61.9,13.39,67,14.52l8.76,23.33,4.54-20.37Z"/><path d="M90.27,44.33l15.58,3.47-.92,4.15L84.81,47.47,91,19.86l4.53,1Z"/><path d="M134.95,29.65,134,33.8,118.3,30.3l-1.59,7.16,14.51,3.23-.92,4.15-14.51-3.23-1.78,8,15.73,3.5-.92,4.15-20.26-4.51,6.15-27.61Z"/><path d="M144.21,31.71l-6.15,27.61-4.53-1,6.15-27.61Z"/><path d="M155.65,49.81l-5.06,3.51-1.87,8.38-4.53-1,6.15-27.61,4.53,1-2.92,13.14,14.88-10.48L172.62,38l-13.24,9.2,7.13,18.42-5.29-1.18Z"/><path d="M186.82,63,175,60.35l-4.12,6.28-4.34-1L183,40.35l5,1.12,4.17,29.91-4.34-1Zm-.57-4.25-1.83-12.8-7,10.82Z"/><path d="M213.63,64.63l2.47,12.06-4.8-1.07-2.18-11.24-.5-.11L202,62.8,199.73,73l-4.53-1,6.15-27.61,11.24,2.5c7.62,1.7,8.83,6.28,7.82,10.85C219.63,61.21,217.75,64.11,213.63,64.63Zm-4.5-4.4c4,.89,6-.34,6.73-3.46s-.62-5.1-4.55-6L205,49.4l-2.1,9.45Z"/><rect class="cls-2" x="98.5" y="-72.06" width="28.54" height="222.51" transform="translate(50 140.75) rotate(-77.45)"/></svg>