<svg id="Layer_1" data-name="Layer 1" xmlns="http://www.w3.org/2000/svg" viewBox="0 0 220 68"><defs><style>.cls-1{fill:#fff;}.cls-2{fill:none;stroke:#000;stroke-width:0.25px;}</style></defs><title>vidburdir</title><rect class="cls-1" x="95.19" y="-74.52" width="28.54" height="215.03" transform="translate(59.12 135.64) rotate(-80.65)"/><path d="M32.36,6l-15,26.2-5.24-.86L6.34,1.67,11,2.43l4.65,23.9L27.74,5.2Z"/><path d="M40.18,7.24,35.59,35.15,31,34.4,35.6,6.49Z"/><path d="M68.86,24.73l-.5,3c-.82,5-2.89,12.3-14.64,10.36l-9.86-1.62,2.07-12.59-5.16-.85.65-3.93,5.16.85,1.88-11.4,9.86,1.62C70.06,12.16,69.67,19.77,68.86,24.73Zm-4.56-1.11c.68-4.12.29-8.26-6.64-9.4l-5.27-.87-1.22,7.39,5.54.91-.65,3.93-5.54-.91-1.41,8.55,5.27.87c6.93,1.14,8.63-2.73,9.29-6.74Z"/><path d="M95.33,23.71c-.66,4-3.1,4.91-5.89,5,3.13.91,5.27,3.28,4.55,7.67-.92,5.58-5,7.51-12.58,6.27L71,41l4.59-27.91,10.74,1.77C94.55,16.19,95.95,19.94,95.33,23.71Zm-17.64,5-1.5,9.12,6.31,1c4.7.77,6.54-.58,7-3.51S88.7,30.57,84,29.8Zm1.82-11.09-1.2,7.28,6.12,1c4.39.72,6-.37,6.34-2.71S90,19.4,85.63,18.68Z"/><path d="M98,34l2.77-16.82,4.58.75-2.6,15.78c-.86,5.24,0,8.87,5.78,9.81s7.76-2.2,8.62-7.44l2.6-15.79,4.58.75-2.77,16.82c-1,6-4,11.25-13.69,9.65S97,40,98,34Z"/><path d="M143.18,41.47l3.14,11.91-4.85-.8-2.8-11.1-.5-.08-6.7-1.1-1.71,10.36-4.58-.75L129.78,22l11.36,1.87c7.7,1.27,9.17,5.78,8.41,10.4C149,37.72,147.26,40.72,143.18,41.47Zm-4.74-4.14c4,.67,6-.67,6.52-3.83s-.91-5.05-4.87-5.71l-6.39-1.05-1.57,9.55Z"/><path d="M178,42.69l-.5,3c-.82,5-2.89,12.3-14.64,10.36L153,54.47l2.07-12.59L149.9,41l.65-3.93,5.16.85,1.88-11.4,9.86,1.62C179.18,30.12,178.79,37.72,178,42.69Zm-4.56-1.11c.68-4.12.29-8.26-6.64-9.4l-5.27-.87-1.22,7.39,5.54.91-.65,3.93-5.54-.91-1.41,8.55,5.27.87c6.93,1.14,8.63-2.73,9.29-6.74Z"/><path d="M189.27,31.78l-4.59,27.91-4.58-.75L184.68,31Z"/><path d="M208.87,52.28,212,64.19l-4.85-.8-2.8-11.1-.5-.08-6.7-1.1-1.71,10.36-4.58-.75,4.59-27.91,11.36,1.87c7.7,1.27,9.17,5.78,8.41,10.4C214.66,48.53,212.94,51.53,208.87,52.28Zm-4.74-4.14c4,.67,6-.67,6.52-3.83s-.91-5.05-4.87-5.71l-6.39-1.05-1.57,9.55Z"/><rect class="cls-2" x="95.51" y="-74.51" width="28.54" height="215.12" transform="translate(59.34 136.01) rotate(-80.65)"/></svg>