<svg id="Layer_1" data-name="Layer 1" xmlns="http://www.w3.org/2000/svg" viewBox="0 0 265 119"><defs><style>.cls-1{fill:#fff;}.cls-2{fill:none;stroke:#000;stroke-width:0.25px;}</style></defs><title>workshops</title><rect class="cls-1" x="3.66" y="44.42" width="257.64" height="28.54" transform="translate(-11.54 42.79) rotate(-17.59)"/><path d="M45.67,71.36,46,100.91,41,102.52l-12.9-18-.19,22.12-5.06,1.6L6.1,83.9l4.46-1.42,12.72,18.81.34-22.95,4.57-1.45L41.65,95.47l-.44-22.7Z"/><path d="M52.43,86.08l-1.17-3.68c-2.32-7.33.43-13.48,8.17-15.93s13.53,1,15.86,8.32l1.17,3.68c2.32,7.33-.43,13.48-8.17,15.93S54.76,93.4,52.43,86.08Zm19.51-6.51-1-3.09C69.23,71,66,68.63,60.66,70.33s-6.61,5.49-4.87,11l1,3.09c1.73,5.47,4.94,7.85,10.3,6.15S73.67,85,71.94,79.56Z"/><path d="M97,73l8.19,9.19-4.69,1.49L93,75l-.48.15L86,77.23l3.17,10-4.42,1.4-8.55-27,11-3.48c7.44-2.36,10.79,1,12.21,5.46C100.46,67,100.28,70.45,97,73Zm-6.1-1.55c3.91-1.24,5-3.32,4.08-6.37S91.87,61,88,62.18l-6.17,2,2.92,9.22Z"/><path d="M114.05,65.6l-2.61,5.58L114,79.35l-4.43,1.4-8.55-27,4.42-1.4,4.07,12.83,7.61-16.53,5.65-1.79L116,61.5l15.42,12.34-5.17,1.64Z"/><path d="M148.73,47.81l-4.43,1.4c-1.51-3-3.56-4.27-7.84-2.92-4.61,1.46-5.29,4-4.67,5.94.53,1.67,1.78,2.38,4.57,2.15l6.67-.52c4.35-.36,8.2.43,9.67,5.08,1.67,5.28-1.67,9.21-8,11.21-7.62,2.42-12-.37-14.13-5.18L135,63.6c2,3.19,5,3.81,8.66,2.66,2.64-.84,5.7-2.67,4.76-5.64-.68-2.16-2.64-2.4-5.29-2.21l-6.84.49c-4.72.35-7.61-1.27-8.82-5.1-1.45-4.57.45-9,7.74-11.34C142.83,40,146.88,43,148.73,47.81Z"/><path d="M160,51.06,164,63.52l-4.43,1.4L151,38l4.43-1.4,3.35,10.56,12.76-4L168.2,32.51l4.43-1.4,8.55,27-4.43,1.4L172.8,47Z"/><path d="M182.1,45l-1.17-3.68c-2.32-7.33.43-13.48,8.17-15.93s13.54,1,15.86,8.32l1.17,3.68c2.32,7.33-.43,13.48-8.17,15.93S184.42,52.29,182.1,45Zm19.51-6.51-1-3.09c-1.73-5.47-4.94-7.85-10.3-6.15s-6.61,5.49-4.87,11l1,3.09c1.73,5.47,4.94,7.85,10.3,6.15S203.34,43.92,201.61,38.45Z"/><path d="M214.43,47.52l-8.55-27,11-3.48c7.44-2.36,10.79,1,12.21,5.46s.61,9.14-6.91,11.52l-6.47,2.05,3.17,10Zm3.28-26.46-6.17,2,2.92,9.22,6.1-1.93c3.91-1.24,5-3.32,4.08-6.37S221.54,19.85,217.71,21.07Z"/><path d="M253.11,14.71l-4.43,1.4c-1.51-3-3.56-4.27-7.84-2.92-4.61,1.46-5.29,4-4.67,5.94.53,1.67,1.78,2.38,4.57,2.15l6.67-.52c4.35-.36,8.2.43,9.67,5.08,1.67,5.28-1.67,9.21-8,11.21-7.62,2.42-12-.37-14.13-5.18l4.35-1.38c2,3.19,5,3.81,8.66,2.66,2.64-.84,5.7-2.67,4.76-5.64-.68-2.16-2.64-2.4-5.29-2.21l-6.84.49c-4.72.35-7.61-1.27-8.82-5.1-1.45-4.57.45-9,7.74-11.34C247.2,6.93,251.25,9.9,253.11,14.71Z"/><rect class="cls-2" x="3.66" y="44.41" width="257.67" height="28.54" transform="translate(-11.54 42.79) rotate(-17.59)"/></svg>