<?xml version="1.0" encoding="UTF-8"?>
<svg width="1917px" height="1357px" viewBox="0 0 1917 1357" version="1.1" xmlns="http://www.w3.org/2000/svg" xmlns:xlink="http://www.w3.org/1999/xlink">
    <!-- Generator: Sketch 49.3 (51167) - http://www.bohemiancoding.com/sketch -->
    <title>Artboard</title>
    <desc>Created with Sketch.</desc>
    <defs></defs>
    <g id="Artboard" stroke="none" stroke-width="1" fill="none" fill-rule="evenodd">
        <path d="M947.859375,640.332031 C936.069803,652.739784 941.793349,645.631099 930.625,677.367188 C930.232914,678.481344 928.577475,686.523861 932.441406,687.308594 C961.207589,693.150766 988.656601,681.274402 1017.86328,689.769531 C1037.71349,695.543212 1048.5206,711.976318 1064.41797,723.296875 C1076.26829,731.73552 1088.80431,739.226825 1101.59375,746.160156 C1125.23374,758.97572 1157.06478,763.309648 1182.67187,767.574219 C1281.48509,784.030437 1341.26205,797.466779 1432.32422,801.582031 C1503.00204,804.776081 1573.77411,805.523632 1644.46094,808.511719 C1673.91607,809.756852 1706.17456,814.026553 1731.14844,831.238281 C1762.0312,852.522347 1793.75866,903.113531 1814.05469,926.964844 C1835.41525,952.067159 1857.42988,976.611148 1879.60156,1001 C1884.71876,1006.62892 1890.18397,1011.95402 1895.89062,1016.98438 C1907.50082,1027.21864 1919.08006,1037.54796 1931.51562,1046.76172 C1944.6476,1056.49146 1958.38713,1065.42658 1972.46875,1073.72266 C1985.4535,1081.37252 1998.86147,1088.3524 2012.60547,1094.53516 C2022.94098,1099.1846 2033.79263,1102.61198 2044.55859,1106.15234 C2052.77073,1108.85289 2061.08731,1111.27298 2069.50391,1113.24609 C2075.57804,1114.67006 2081.72688,1116.43095 2087.96484,1116.32812 C2089.56316,1116.30178 2090.19141,1114.03385 2091.30469,1112.88672" id="Path" stroke="#E6A931" stroke-width="6"></path>
        <path d="M541.53125,684.878906 C548.708068,697.749537 569.57644,700.703002 583.003906,695.464844 C588.94644,693.146616 590.808976,687.028622 597.5625,687.363281 C613.380186,688.147099 652.619396,694.771829 670.707031,689.609375 C694.216262,682.899525 712.751251,652.964764 722.40625,633.539062 C731.683266,614.873858 718.586304,593.584123 712.78125,576.734375 C705.08867,554.405892 698.676984,531.641944 690.6875,509.417969 C688.880033,504.390223 686.483069,499.513525 683.441406,495.121094 C626.349895,412.675876 530.159022,410.164851 443.203125,445.476563 C410.433713,458.783814 394.242304,481.951403 369.316406,505.464844 C344.821991,528.571253 317.644827,551.477296 286.894531,565.988281 C275.636122,571.301096 264.341275,576.585756 252.726563,581.066406 C239.238864,586.269604 225.602344,591.189849 211.660156,595.011719 C187.643678,601.59518 163.347321,607.168813 138.96875,612.25 C131.361005,613.83567 123.551379,614.238395 115.816406,614.988281 C105.376512,616.000403 94.9332237,617.107013 84.453125,617.535156 C76.0457127,617.878624 67.6047521,617.889363 59.2109375,617.300781 C52.9175931,616.859486 46.6621718,615.805369 40.5,614.453125 C33.8324576,612.989981 26.8481185,612.030107 20.796875,608.871094 C-7.32909499,594.18811 -34.761171,578.136473 -61.5703125,561.167969 C-77.5511041,551.053131 -92.3831018,539.215717 -107.40625,527.726562 C-113.695556,522.916731 -119.447917,517.442708 -125.46875,512.300781" id="Path-3" stroke="#E6A931" stroke-width="6"></path>
        <path d="M750.3125,1194.33203 L752.402344,1184.64844" id="Path-4" stroke="#979797"></path>
        <path d="M778.714844,755.386719 C769.590283,774.035123 759.80837,800.714023 742.894531,814.207031 C736.478111,819.325728 723.652944,823.720278 717.03125,825.601562 C702.733266,829.663752 688.4824,834.263876 673.78125,836.457031 C630.815515,842.86677 586.962577,830.853577 543.972656,838.484375 C515.244223,843.58373 487.122624,868.843877 469.03125,889.925781 C444.24212,918.812591 426.78898,952.760155 425.230469,991.621094 C422.633454,1056.37675 443.68249,1150.2114 395.546875,1207.38281 C392.708374,1210.75414 389.619634,1214.06514 385.890625,1216.41406 C357.893095,1234.04988 310.419326,1222.62312 286.667969,1224.21875 C266.823594,1225.55191 247.046912,1228.43271 227.578125,1232.5 C157.963886,1247.04336 78.1244201,1266.48103 21.9179688,1314.02734 C17.3347622,1317.90438 -10.5204851,1342.9458 -10.40625,1353.56641 C-10.3847871,1355.56184 -7.30989583,1356.08464 -5.76171875,1357.34375" id="Path-5" stroke="#E6A931" stroke-width="6"></path>
        <path d="M882.519531,827.800781 C927.615644,846.377093 999.050912,845.02054 1037.59375,879.867188 C1061.67575,901.639762 1060.15907,973.08094 1064.82422,1000.73438 C1072.71209,1047.491 1106.34856,1088.15933 1142.23438,1116.68359 C1211.33799,1171.61142 1300.16573,1195.0254 1380.55859,1226.73828 C1427.01796,1245.06528 1467.46165,1273.07044 1509.57031,1299.26172 C1573.03919,1338.7389 1641.75715,1384.33412 1718.55859,1391.38281 C1731.23987,1392.54668 1744.03507,1392.04696 1756.76172,1391.59766 C1759.4035,1391.50439 1762.12619,1390.97147 1764.47656,1389.76172 C1765.46847,1389.25118 1765.53125,1387.79557 1766.05859,1386.8125" id="Path-6" stroke="#E6A931" stroke-width="6"></path>
        <path d="M861.265625,737.445312 C861.324219,729.821615 861.001149,722.18542 861.441406,714.574219 C861.550821,712.682654 862.033822,710.763952 862.90625,709.082031 C868.046362,699.172604 879.842613,695.489689 882.394531,684.34375 C884.993794,672.991024 880.446212,670.651653 877.886719,659.664063 C872.849653,638.040555 873.11668,594.571952 894.078125,578.414062 C907.678039,567.930725 919.957864,559.883164 936.304687,555.578125 C940.507643,554.47125 945.158305,555.529559 949.257812,554.085937 C957.722464,551.105151 965.172939,545.701818 973.542969,542.464844 C1006.35464,529.775457 1047.7595,535.608357 1080.32812,545.539062 C1117.83164,556.974497 1150.74656,579.053111 1189.19922,588.507812 C1265.27184,607.212473 1359.14958,598.148088 1429.23828,562.546875 C1470.55936,541.558036 1522.49919,502.912884 1536.88281,455.667969 C1568.41093,352.109685 1482.17493,257.224038 1390.13672,224.117187 C1338.11966,205.406252 1277.8165,210.34993 1225.03125,222.109375 C1178.75909,232.417841 1132.91416,244.566532 1086.73438,255.28125 C1067.98006,259.632659 1049.27765,264.421973 1030.24219,267.304687 C997.198944,272.308729 934.582506,275.57015 902.28125,274.664062 C844.178062,273.0342 788.471817,257.653715 736.859375,231.519531 C722.787376,224.394114 696.81679,204.2625 701.484375,185.734375 C711.70916,145.146773 785.648815,111.864724 817.871094,98.0898437 C832.833947,91.6932907 848.11931,86.0507958 863.488281,80.703125 C950.208415,50.5286445 1039.82057,47.4994961 1130.50391,40.8945312 C1172.97448,37.8011664 1246.36898,18.6954824 1273.22656,11.9296875 C1315.45991,1.29052549 1366.28015,-23.4036525 1386.63281,-63.6523438" id="Path-2" stroke="#E6A931" stroke-width="6"></path>
        <path d="M1319.10156,698.164063 C1365.47049,706.077392 1411.18594,712.204787 1458.42188,708.472656 C1525.65661,703.160412 1604.54074,680.39231 1652.95312,630.371094 C1682.77298,599.560272 1702.66997,560.363666 1721.75391,522.460938 C1740.74601,484.740595 1761.1495,439.105913 1759.48828,395.816406 C1758.31917,365.350708 1755.16829,334.985997 1753.82812,304.527344 C1751.50545,251.738631 1745.19577,214.15612 1767.84375,168.117188 C1803.57639,95.4797122 1890.6992,67.7662686 1961.95312,45.3398438" id="Path-7" stroke="#E6A931" stroke-width="6"></path>
        <path d="M718.242188,1394.17188 C709.608529,1382.96338 703.348929,1364.95858 703.101562,1350.63672 C702.374666,1308.55132 706.52226,1271.07372 732.796875,1236.57031 C760.750294,1199.86233 802.468797,1170.62738 817.183594,1125.3125 C819.839378,1117.13389 822.778021,1108.89658 823.667969,1100.34375 C826.194532,1076.06227 822.247285,995.310315 783.316406,990.015625 C719.413009,981.324615 670.793056,1030.18589 692.203125,1093.47266" id="Path-8" stroke="#E6A931" stroke-width="6"></path>
        <path d="M1075.78125,805.859375 C1039.10131,790.532043 1026.38057,783.07067 986.097656,775.527344 C938.401578,766.595839 884.95289,787.230889 841.117188,759.3125 C798.014301,731.860832 804.575282,693.125438 806.128906,646.546875 C807.93299,592.45939 828.271463,540.043813 875.988281,511.972656 C907.338552,493.529717 955.568446,501.845808 976.628906,482.269531 C998.92314,461.546428 1012.86121,417.498611 990.460938,392.152344 C961.10219,358.93245 897.246285,361.776595 858.175781,359.71875 C793.64401,356.319858 728.123368,347.345675 666.105469,328.800781 C630.053835,318.020446 593.337927,301.997098 562.890625,279.546875 C515.768898,244.801816 475.38741,211.455864 416.960938,197.441406 C358.065169,183.314381 247.12228,211.48613 201.828125,217.980469 C191.778495,219.421399 175.085872,220.559717 164.808594,218.988281 C83.3861246,206.538468 10.5530411,164.012275 -70.296875,151.332031" id="Path-9" stroke="#E6A931" stroke-width="6"></path>
        <path d="M587.863281,739.273437 C546.247827,740.697395 506.070191,741.602065 465.597656,729.535156 C441.617969,722.385599 415.711195,705.896958 388.824219,708.339844 C349.320134,711.929089 363.185605,713.073051 318.753906,725.800781 C318.176295,725.966241 286.256662,730.946913 278.191406,737.59375 C220.867258,784.836422 245.380234,840.540081 219.917969,895.996094 C207.345302,923.378966 179.046065,938.245059 153.628906,951.449219 C110.629184,973.787484 51.0618555,992.611068 1.47265625,987.546875 C-16.5400036,985.70737 -34.1716383,981.15185 -51.9570312,977.757812 C-56.076545,976.971674 -60.2392262,976.283428 -64.234375,975.007812 C-65.3799891,974.642028 -66.1875,973.604167 -67.1640625,972.902344" id="Path-10" stroke="#E6A931" stroke-width="6"></path>
        <path d="M1361.87891,1001.53125 C1409.82515,992.93545 1392.02453,995.643255 1483.99609,989.179687 C1572.06797,982.990181 1692.90449,984.746996 1757.50391,1054.76562 C1786.8317,1086.55372 1810.19765,1126.98556 1820.23047,1169.14453 C1826.13182,1193.94261 1828.37265,1227.89658 1842.5,1250.52344 C1860.6745,1279.63236 1890.02951,1301.53311 1917.42188,1321.29688 C1952.59761,1346.67639 1988.90051,1379.21974 2031.47266,1393.64453" id="Path-11" stroke="#E6A931" stroke-width="6"></path>
    </g>
</svg>