<?xml version="1.0" encoding="UTF-8"?>
<svg width="237px" height="187px" viewBox="0 0 237 187" version="1.1" xmlns="http://www.w3.org/2000/svg" xmlns:xlink="http://www.w3.org/1999/xlink">
    <!-- Generator: Sketch 44.1 (41455) - http://www.bohemiancoding.com/sketch -->
    <title>logo</title>
    <desc>Created with Sketch.</desc>
    <defs>
        <polygon id="path-1" points="5.2367478e-18 0.203355124 5.2367478e-18 109.291414 236.609641 109.291414 236.609641 0.203355124 0 0.203355124"></polygon>
        <polygon id="path-3" points="0 127.687904 0 0.181890503 239.112625 0.181890503 239.112625 127.687904"></polygon>
        <polygon id="path-5" points="0 127.687904 0 0.181890503 239.112625 0.181890503 239.112625 127.687904"></polygon>
    </defs>
    <g id="Page-1" stroke="none" stroke-width="1" fill="none" fill-rule="evenodd">
        <g id="LungA-front-Final" transform="translate(-393.000000, -233.000000)">
            <g id="Header" transform="translate(0.000000, 22.000000)">
                <g id="logo" transform="translate(393.000000, 202.000000)">
                    <g id="Group-3" transform="translate(0.000000, 9.000000)">
                        <mask id="mask-2" fill="white">
                            <use xlink:href="#path-1"></use>
                        </mask>
                        <g id="Clip-2"></g>
                        <path d="M-0.0777713088,0.203355124 L-0.0777713088,66.4773951 L41.4591262,66.4773951 L41.4591262,57.6306572 L9.04950873,57.6306572 L9.04950873,0.203355124 L-0.0777713088,0.203355124 Z M77.039217,52.259107 C76.7297921,54.4706951 75.7547263,56.3273655 74.1110008,57.8279622 C72.4672753,59.3285588 70.0522517,60.0792425 66.8678166,60.0792425 C63.4762177,60.0792425 60.9600649,59.1979214 59.3163395,57.4329669 C57.672614,55.6695539 56.8507512,53.5227065 56.8507512,50.9951221 L56.8507512,26.9813367 L47.7234712,26.9813367 L47.7234712,50.9951221 C47.7234712,53.2070956 48.0332735,55.3531723 48.6521233,57.4329669 C49.2705957,59.5139176 50.2641516,61.356715 51.6312814,62.9625153 C52.9980338,64.5694716 54.7394923,65.8727633 56.8545247,66.8723904 C58.9695572,67.8720174 61.5219353,68.372987 64.5146779,68.372987 C70.3439412,68.372987 74.9600326,66.4773951 78.3648386,62.6858259 L78.4433268,66.4773951 L86.1661197,66.4773951 L86.1661197,26.9813367 L77.039217,26.9813367 L77.039217,52.259107 Z M104.497659,41.2000102 C104.807461,38.9884221 105.773848,37.1317516 107.398706,35.631155 C109.022432,34.1305583 111.432927,33.3798747 114.630947,33.3798747 C118.034244,33.3798747 120.560207,34.2623519 122.211103,36.0261503 C123.860488,37.7911047 124.686502,39.9364107 124.686502,42.4639951 L124.686502,66.4773951 L133.813027,66.4773951 L133.813027,42.4639951 C133.813027,40.2520216 133.490772,38.1074863 132.847018,36.0261503 C132.201376,33.946741 131.208575,32.1039436 129.868237,30.4966019 C128.526767,28.8908016 126.78644,27.5875099 124.647258,26.5867268 C122.50732,25.5867144 119.941358,25.0861301 116.951256,25.0861301 C111.123125,25.0861301 106.508921,26.9813367 103.105624,30.7732913 L103.105624,26.9813367 L95.3703786,26.9813367 L95.3703786,66.4773951 L104.497659,66.4773951 L104.497659,41.2000102 Z M171.960213,26.9813367 L171.647769,30.7732913 C169.9448,28.9304938 167.920708,27.5219985 165.573607,26.5470346 C163.226129,25.5732267 160.581678,25.0861301 157.642896,25.0861301 C154.650153,25.0861301 152.071361,25.5867144 149.906141,26.5867268 C147.73828,27.5875099 145.957955,28.8908016 144.56592,30.4966019 C143.173508,32.1039436 142.15467,33.946741 141.509028,36.0261503 C140.864141,38.1074863 140.542641,40.2520216 140.542641,42.4639951 L140.542641,50.9951221 C140.542641,53.2070956 140.864141,55.3531723 141.509028,57.4329669 C142.153538,59.5139176 143.172376,61.356715 144.565165,62.9625153 C145.956823,64.5694716 147.737148,65.8727633 149.9035,66.8723904 C152.068719,67.8720174 154.64638,68.372987 157.639122,68.372987 C160.165086,68.372987 162.562374,68.0438885 164.832874,67.3860769 C167.102242,66.7267238 169.061429,65.4777681 170.712325,63.6338146 L170.709306,75.7985127 C170.709306,78.7472969 170.494218,81.4467523 170.065174,83.8949523 C169.634243,86.3439229 168.965206,88.4106152 168.056176,90.0957999 L153.591316,74.0609189 C151.68307,71.954149 149.685393,70.4924738 147.597152,69.6770495 C145.508157,68.8596983 143.470858,68.5710627 141.486387,68.8080599 C139.501163,69.0446717 137.65782,69.7286879 135.955606,70.8616499 C134.254146,71.9930705 132.849659,73.4944379 131.740258,75.3642106 C130.632365,77.2328272 129.922575,79.3792893 129.613527,81.8020554 C129.303725,84.22328 129.562208,86.804815 130.386712,89.5431919 C131.366684,92.9127906 133.004749,95.8623455 135.298267,98.3903152 C137.593671,100.918285 140.221896,102.932568 143.187847,104.433165 C146.153043,105.934147 149.298612,106.882135 152.624929,107.276745 C155.950492,107.671741 159.16021,107.395051 162.254459,106.447833 C164.729858,105.657457 166.89621,104.630855 168.753514,103.36687 L174.178638,109.291414 L180.532037,103.919864 L174.566174,97.2843284 C176.3748,94.4923863 177.653253,91.2807857 178.402665,87.6476 C179.152078,84.0136435 179.499992,80.0644616 179.449427,75.7985127 L179.449427,26.9813367 L171.960213,26.9813367 Z M170.322525,50.9951221 C170.322525,52.2070832 170.077626,53.3527622 169.590093,54.4310029 C169.101051,55.5111704 168.395789,56.4730321 167.47091,57.3142757 C166.545277,58.157446 165.440403,58.8287453 164.157045,59.3285588 C162.872177,59.8302992 161.434106,60.0792425 159.840945,60.0792425 C156.502174,60.0792425 153.972437,59.1979214 152.251733,57.4329669 C150.531028,55.6695539 149.669922,53.5227065 149.669922,50.9951221 L149.669922,42.4639951 C149.669922,39.9364107 150.531028,37.7911047 152.251733,36.0261503 C153.972437,34.2623519 156.502174,33.3798747 159.840945,33.3798747 C161.434106,33.3798747 162.872177,33.6303595 164.157045,34.1305583 C165.440403,34.6315279 166.545277,35.3028272 167.47091,36.1448415 C168.395789,36.9876265 169.101051,37.9618197 169.590093,39.0674211 C170.077626,40.1734079 170.322525,41.3063699 170.322525,42.4639951 L170.322525,50.9951221 Z M137.758572,81.8417476 C138.221577,80.2344059 138.995517,79.0629077 140.078504,78.3264824 C141.161869,77.5881303 142.462963,77.3908253 143.984428,77.7337968 C145.50476,78.0759976 147.013018,79.1681113 148.509201,81.0116795 L162.818971,96.8103341 C162.354833,97.0731505 161.877489,97.3359668 161.388069,97.60071 C160.89714,97.8635263 160.369231,98.0739336 159.802455,98.2323171 C157.637235,98.8643095 155.39315,99.0481268 153.072841,98.7853104 C150.752531,98.521338 148.57335,97.8766286 146.536806,96.8500263 C144.499884,95.823424 142.720314,94.4923863 141.199981,92.8607668 C139.678138,91.2279912 138.608736,89.3855792 137.990263,87.3316038 C137.371414,85.2776284 137.294057,83.4475479 137.758572,81.8417476 L137.758572,81.8417476 Z M217.272849,0.203355124 L207.526341,0.203355124 L186.64167,66.4773951 L195.61386,66.4773951 L201.492556,47.5199345 L222.144782,47.5199345 L227.636696,66.4773951 L236.609641,66.4773951 L217.272849,0.203355124 Z M212.167338,13.2370428 L219.747116,39.3834173 L203.967955,39.3834173 L212.167338,13.2370428 Z" id="Fill-1" fill="#FFFFFF" mask="url(#mask-2)"></path>
                    </g>
                    <g id="Group-10">
                        <g id="Group-6">
                            <mask id="mask-4" fill="white">
                                <use xlink:href="#path-3"></use>
                            </mask>
                            <g id="Clip-5"></g>
                            <path d="M-25.506046,-1.36926554 L-39.4622413,-1.36926554 M259.816924,-1.36926554 L273.77312,-1.36926554 M-25.506046,125.318626 L-39.4622413,125.318626 M259.816924,125.318626 L273.77312,125.318626 M-22.4046273,-4.53654954 L-22.4046273,-18.7887495 M-22.4046273,128.48591 L-22.4046273,142.738495 M256.715506,-4.53654954 L256.715506,-18.7887495 M256.715506,128.48591 L256.715506,142.738495" id="Stroke-4" stroke="#FFFFFF" stroke-width="1.712" mask="url(#mask-4)"></path>
                        </g>
                        <g id="Group-9">
                            <mask id="mask-6" fill="white">
                                <use xlink:href="#path-5"></use>
                            </mask>
                            <g id="Clip-8"></g>
                            <path d="M-25.506046,-1.36926554 L-39.4622413,-1.36926554 M259.816924,-1.36926554 L273.77312,-1.36926554 M-25.506046,125.318626 L-39.4622413,125.318626 M259.816924,125.318626 L273.77312,125.318626 M-22.4046273,-4.53654954 L-22.4046273,-18.7887495 M-22.4046273,128.48591 L-22.4046273,142.738495 M256.715506,-4.53654954 L256.715506,-18.7887495 M256.715506,128.48591 L256.715506,142.738495" id="Stroke-7" stroke="#000000" stroke-width="0.342" mask="url(#mask-6)"></path>
                        </g>
                    </g>
                    <path d="M87.5065111,160.934848 C102.041935,160.934848 109.778312,151.597545 109.778312,138.030517 L109.778312,123.904716 C109.778312,110.337303 102.041935,101 87.5065111,101 C73.0491984,101 65,110.337303 65,123.904716 L65,138.030517 C65,151.597545 73.0491984,160.934848 87.5065111,160.934848 M87.5065111,152.555168 C78.1290497,152.555168 74.2997278,146.888816 74.2997278,137.711053 L74.2997278,124.223795 C74.2997278,115.046032 78.1290497,109.37968 87.5065111,109.37968 C96.8843499,109.37968 100.478962,115.046032 100.478962,124.223795 L100.478962,137.711053 C100.478962,146.888816 96.8843499,152.555168 87.5065111,152.555168" id="Fill-11" fill="#FFFFFF"></path>
                    <polygon id="Fill-13" fill="#FFFFFF" points="155.223966 138 137.406374 148.933469 137.406374 158.989085 152.801395 149.651782 152.801395 187.320458 136 187.320458 136 195.859677 178.902518 195.859677 178.902518 187.320458 162.100746 187.320458 162.100746 138"></polygon>
                    <g id="Group-18" transform="translate(1.000000, 101.000000)" fill="#FFFFFF">
                        <path d="M224.365698,29.6663796 C227.257311,28.2297529 233.040161,25.1973454 233.040161,16.8176653 C233.040161,8.11852077 226.866379,0.297614483 212.95622,0.297614483 C198.96795,0.297614483 192.794169,8.11852077 192.794169,16.8176653 C192.794169,25.1973454 198.498908,28.2297529 201.390521,29.6663796 C198.577018,29.9854587 191.074974,33.4972557 191.074974,43.2334073 C191.074974,52.8901745 198.811729,59.9129977 212.95622,60.0725372 C226.866379,60.0725372 234.759356,52.8901745 234.759356,43.1536375 C234.759356,33.5770255 227.491644,30.0652285 224.365698,29.6663796 M212.95622,8.59752478 C221.395973,8.59752478 223.740433,12.7474799 223.740433,17.296284 C223.740433,21.7657036 221.395973,25.9954285 212.95622,25.9954285 C204.438356,25.9954285 202.093897,21.7657036 202.093897,17.296284 C202.093897,12.7474799 204.438356,8.59752478 212.95622,8.59752478 M212.95622,51.8527821 C205.141732,51.8527821 200.452813,49.0592985 200.452813,42.8345584 C200.452813,36.5296632 205.141732,33.736565 212.95622,33.736565 C220.692975,33.736565 225.381517,36.5296632 225.381517,42.8345584 C225.381517,49.0592985 220.692975,51.8527821 212.95622,51.8527821" id="Fill-14"></path>
                        <path d="M15.8783277,50.8488004 L29.6322648,39.5160972 C37.9939069,32.5730438 43.0733809,26.986462 43.0733809,18.7667068 C43.0733809,9.90802274 36.9780876,0.490950215 22.5207748,0.490950215 C7.28197556,0.490950215 1.18668225,10.4667965 0.0927520024,20.1231784 L9.39210248,20.1231784 C10.4860327,12.9408157 14.3153546,8.79086051 22.2864421,8.79086051 C31.117127,8.79086051 33.7740304,14.377057 33.7740304,18.8464766 C33.7740304,24.7521375 29.2413329,28.3433189 23.5365942,33.2913572 L1.65572513,52.1258876 L1.65572513,59.3880201 L43.2299801,59.3880201 L43.2299801,50.8488004 L15.8783277,50.8488004 Z" id="Fill-16"></path>
                    </g>
                </g>
            </g>
        </g>
    </g>
</svg>