<?xml version="1.0" encoding="utf-8"?>
<!-- Generator: Adobe Illustrator 21.1.0, SVG Export Plug-In . SVG Version: 6.00 Build 0)  -->
<svg version="1.1" id="Layer_1" xmlns="http://www.w3.org/2000/svg" xmlns:xlink="http://www.w3.org/1999/xlink" x="0px" y="0px"
	 viewBox="0 0 1080 851" style="enable-background:new 0 0 1080 851;" xml:space="preserve">
<style type="text/css">
	.st0{fill:#BDFC4D;}
</style>
<title>Artboard 1</title>
<polygon class="st0" points="201.9,268.4 60,268.4 60,17 20,17 20,307.1 201.9,307.1 "/>
<path class="st0" d="M363.4,290.5l0.3,16.6h33.8V134.2h-40v110.7c-1.2,9.4-5.8,18.1-12.8,24.4c-7.2,6.6-17.8,9.9-31.7,9.9
	c-14.8,0-25.9-3.9-33.1-11.6c-7.2-7.7-10.8-17.1-10.7-28.2V134.2h-40v105.1c0,9.5,1.4,19,4.1,28.2c2.6,8.9,7,17.1,13,24.2
	c6.3,7.3,14.1,13.1,22.9,17.1c9.3,4.4,20.4,6.6,33.5,6.6C328.3,315.4,348.5,307.1,363.4,290.5z"/>
<path class="st0" d="M606.1,307.1V202c0-9.6-1.4-19.1-4.2-28.2c-2.7-8.9-7.1-17.1-13-24.2c-6.3-7.3-14.1-13.2-22.9-17.2
	c-9.4-4.4-20.6-6.6-33.7-6.6c-25.5,0-45.7,8.3-60.6,24.9v-16.6h-33.8v172.9h40V196.4c1.2-9.4,5.7-18,12.7-24.4
	c7.1-6.6,17.7-9.9,31.7-9.9c14.9,0,26,3.9,33.2,11.6s10.8,17.1,10.8,28.3v105.1H606.1z"/>
<path class="st0" d="M801.3,399.7c3.4-17.1,4.9-34.5,4.6-51.9V134.2h-32.8l-1.4,16.6c-7.4-8-16.5-14.3-26.6-18.5
	c-10.3-4.3-21.8-6.4-34.7-6.4c-13.1,0-24.4,2.2-33.9,6.6c-8.9,4-16.9,9.8-23.4,17.1c-6.1,7-10.7,15.3-13.4,24.2
	c-2.8,9.1-4.2,18.7-4.2,28.2v37.3c0,9.6,1.4,19.1,4.2,28.2c2.7,8.9,7.3,17.2,13.4,24.2c6.5,7.3,14.4,13.2,23.4,17.1
	c9.5,4.4,20.8,6.6,33.9,6.6c10.6,0,21.2-1.4,31.5-4.4c10-2.9,18.9-8.6,25.7-16.4v53.2c0.1,11.9-0.9,23.7-2.8,35.4
	c-1.9,10.8-4.8,19.8-8.8,27.2l-63.3-70.2c-8.4-9.2-17.1-15.6-26.2-19.2c-16.8-7-36-5.1-51,5.2c-7.5,5.1-13.8,11.8-18.4,19.7
	c-5,8.7-8.2,18.2-9.3,28.2c-1.3,10.6-0.2,21.9,3.4,33.9c4.1,14.4,11.4,27.6,21.5,38.7c9.8,10.9,21.5,19.8,34.5,26.5
	c12.9,6.6,26.9,10.8,41.3,12.5c14.2,1.7,28.5,0.5,42.2-3.7c10.1-3.1,19.7-7.6,28.5-13.5l23.8,25.9l27.8-23.4l-26.1-29
	C792.5,429.7,798,415.6,801.3,399.7z M766,239.3c0,5.2-1.1,10.3-3.2,15c-2.2,4.8-5.4,9.2-9.3,12.7c-4.2,3.8-9.1,6.8-14.5,8.8
	c-6,2.3-12.4,3.4-18.9,3.3c-14.6,0-25.7-3.9-33.2-11.6c-7.4-7.5-11.5-17.6-11.3-28.2V202c-0.2-10.5,3.9-20.7,11.3-28.2
	c7.5-7.7,18.6-11.6,33.2-11.6c6.4-0.1,12.9,1,18.9,3.2c5.3,2,10.3,5,14.5,8.8c4,3.6,7.1,7.9,9.3,12.8c2.1,4.7,3.2,9.8,3.2,14.9
	V239.3z M726.9,443.3c-2.2,1.2-4.5,2.1-6.9,2.8c-9.6,2.8-19.6,3.6-29.5,2.4c-10-1.1-19.7-4-28.7-8.5c-8.8-4.4-16.7-10.3-23.4-17.5
	c-6.5-6.9-11.3-15.2-14-24.2c-2.7-9-3-17-1-24c2-7,5.4-12.1,10.2-15.4c4.7-3.2,10.4-4.1,17.1-2.6c6.7,1.5,13.3,6.3,19.8,14.4
	l62.6,69.2C731.1,441,729,442.2,726.9,443.3L726.9,443.3z"/>
<path class="st0" d="M902.4,224.1h90.4l24,83h39.3L971.5,17h-42.7l-91.4,290.1h39.3L902.4,224.1z M949.1,74l33.2,114.4h-69.1
	L949.1,74z"/>
<path class="st0" d="M403.4,418.8c-63.3,0-98.5,40.9-98.5,100.3v61.8c0,59.4,35.2,100.3,98.5,100.3c63.6,0,97.5-40.9,97.5-100.3
	v-61.8C500.9,459.7,467.1,418.8,403.4,418.8z M460.2,579.5c0,40.2-15.7,65-56.8,65s-57.8-24.8-57.8-65v-59c0-40.2,16.8-65,57.8-65
	s56.8,24.8,56.8,65V579.5z"/>
<polyline class="st0" points="621.9,672.6 689.3,631.8 689.3,796.7 615.7,796.7 615.7,834 803.5,834 803.5,796.7 730,796.7 
	730,580.8 699.9,580.8 621.9,628.6 621.9,672.6 "/>
<path class="st0" d="M154.5,591.8c36.6-30.4,58.8-54.8,58.8-90.8c0-38.8-26.7-80-90-80c-66.7,0-93.4,43.7-98.2,85.9h40.7
	c4.8-31.4,21.5-49.6,56.4-49.6c38.7,0,50.3,24.5,50.3,44c0,25.8-19.8,41.6-44.8,63.2L32,647v31.8h182v-37.4H94.3L154.5,591.8z"/>
<path class="st0" d="M959.4,419.3c-62,0-98.5,30.1-98.5,84.5c0,58.9,44.2,82,91.8,82c9.2,0.1,18.5-0.4,27.7-1.4L910.7,678h47.7
	l69.4-97.8c15.8-22.1,32.2-44.5,32.2-78.9C1060,450.1,1022.5,419.3,959.4,419.3z M1017.9,509.4c0,27-21.7,43.8-57.8,43.8
	c-35.8,0-57.5-17.5-57.5-43.8v-9.8c0-26.3,21.7-43.8,57.5-43.8c36.1,0,57.8,17.5,57.8,43.8V509.4z"/>
</svg>
