<?xml version="1.0" encoding="UTF-8"?>
<svg width="66px" height="30px" viewBox="0 0 66 30" version="1.1" xmlns="http://www.w3.org/2000/svg" xmlns:xlink="http://www.w3.org/1999/xlink">
    <!-- Generator: Sketch 44.1 (41455) - http://www.bohemiancoding.com/sketch -->
    <title>Group 3</title>
    <desc>Created with Sketch.</desc>
    <defs>
        <polygon id="path-1" points="1.44469084e-18 0.0547585208 1.44469084e-18 29.4294829 65.2748224 29.4294829 65.2748224 0.0547585208 0 0.0547585208"></polygon>
    </defs>
    <g id="Page-1" stroke="none" stroke-width="1" fill="none" fill-rule="evenodd">
        <g id="LungA-front-Final" transform="translate(-463.000000, -10.000000)">
            <g id="Top-Menu-–-FIXED">
                <g id="Page-1-Copy" transform="translate(463.000000, 8.000000)">
                    <g id="Group-3" transform="translate(0.000000, 2.545228)">
                        <mask id="mask-2" fill="white">
                            <use xlink:href="#path-1"></use>
                        </mask>
                        <g id="Clip-2"></g>
                        <path d="M-0.021455205,0.0547585208 L-0.021455205,17.9007234 L11.4375606,17.9007234 L11.4375606,15.518515 L2.49653849,15.518515 L2.49653849,0.0547585208 L-0.021455205,0.0547585208 Z M21.2532388,14.0720889 C21.167876,14.6676151 20.8988792,15.1675707 20.4454155,15.5716443 C19.9919517,15.975718 19.3257057,16.1778586 18.4471978,16.1778586 C17.5115385,16.1778586 16.8173934,15.9405406 16.3639297,15.4652819 C15.9104659,14.9904382 15.6837341,14.4123451 15.6837341,13.731729 L15.6837341,7.26540869 L13.1657404,7.26540869 L13.1657404,13.731729 C13.1657404,14.3273589 13.2512073,14.9052445 13.4219328,15.4652819 C13.5925543,16.0256306 13.8666521,16.5218505 14.2438098,16.9542529 C14.6208634,17.3869666 15.1012893,17.7379109 15.6847751,18.0070859 C16.2682609,18.2762608 16.9723997,18.4111595 17.7980243,18.4111595 C19.4061757,18.4111595 20.6796426,17.9007234 21.6189454,16.8797473 L21.6405984,17.9007234 L23.7711284,17.9007234 L23.7711284,7.26540869 L21.2532388,7.26540869 L21.2532388,14.0720889 Z M28.8283524,11.0941469 C28.9138192,10.4986207 29.1804218,9.99866516 29.6286804,9.59459148 C30.0766268,9.1905178 30.7416237,8.98837719 31.6238792,8.98837719 C32.5627656,8.98837719 33.2596174,9.22600655 33.715059,9.70095397 C34.1700842,10.1762127 34.3979612,10.7538907 34.3979612,11.4345068 L34.3979612,17.9007234 L36.9157467,17.9007234 L36.9157467,11.4345068 C36.9157467,10.8388769 36.8268445,10.2614064 36.6492483,9.70095397 C36.4711315,9.14102033 36.197242,8.64480042 35.8274754,8.21198293 C35.4573965,7.77958051 34.977283,7.42863619 34.3871347,7.15914997 C33.7967782,6.88987129 33.0888918,6.75507629 32.2639959,6.75507629 C30.6561568,6.75507629 29.3832104,7.26540869 28.444324,8.28648855 L28.444324,7.26540869 L26.3103587,7.26540869 L26.3103587,17.9007234 L28.8283524,17.9007234 L28.8283524,11.0941469 Z M47.4396237,7.26540869 L47.3534281,8.28648855 C46.8836205,7.79026864 46.325223,7.41099558 45.6777151,7.14846184 C45.0301032,6.8862394 44.3005637,6.75507629 43.4898256,6.75507629 C42.6642009,6.75507629 41.9527751,6.88987129 41.3554438,7.15914997 C40.7573839,7.42863619 40.2662356,7.77958051 39.8822073,8.21198293 C39.4980748,8.64480042 39.2170022,9.14102033 39.0388855,9.70095397 C38.860977,10.2614064 38.772283,10.8388769 38.772283,11.4345068 L38.772283,13.731729 C38.772283,14.3273589 38.860977,14.9052445 39.0388855,15.4652819 C39.2166899,16.0256306 39.4977625,16.5218505 39.8819991,16.9542529 C40.2659233,17.3869666 40.7570716,17.7379109 41.3547151,18.0070859 C41.9520464,18.2762608 42.6631599,18.4111595 43.4887845,18.4111595 C44.1856363,18.4111595 44.8469896,18.3225414 45.473365,18.145409 C46.0994281,17.9678614 46.6399202,17.6315485 47.0953618,17.1350172 L47.094529,20.4106705 C47.094529,21.2047054 47.0351915,21.9316022 46.9168287,22.590842 C46.7979454,23.2502895 46.6133744,23.8067987 46.3625953,24.2605774 L42.3720937,19.9427793 C41.8456552,19.3754781 41.2945448,18.9818851 40.7184502,18.7623114 C40.1421473,18.5422189 39.5801063,18.4644964 39.0326394,18.5283139 C38.4849644,18.5920276 37.9764312,18.7762163 37.5068319,19.0812951 C37.0374407,19.3859587 36.649977,19.79024 36.3439202,20.2937237 C36.0382798,20.796896 35.8424659,21.3748853 35.7572073,22.0272765 C35.6717404,22.6792526 35.7430495,23.3743963 35.9705101,24.1117737 C36.2408603,25.0191235 36.6927625,25.8133659 37.325488,26.4940859 C37.9587341,27.1748058 38.6837972,27.7172026 39.5020306,28.1212762 C40.3200558,28.5254537 41.1878413,28.7807237 42.1054912,28.8869824 C43.0229328,28.9933449 43.9084155,28.9188392 44.7620432,28.6637768 C45.4449454,28.4509481 46.042589,28.1745094 46.5549738,27.8341494 L48.0516331,29.4294829 L49.8043808,27.9830569 L48.1585448,26.1962709 C48.6575006,25.4444697 49.0101946,24.5796649 49.2169391,23.6013375 C49.4236836,22.6228027 49.5196647,21.5593853 49.5057151,20.4106705 L49.5057151,7.26540869 L47.4396237,7.26540869 Z M46.9878256,13.731729 C46.9878256,14.0580802 46.920264,14.3665833 46.7857656,14.656927 C46.6508508,14.9477895 46.4562861,15.2067951 46.2011347,15.4333212 C45.9457751,15.6603662 45.6409675,15.8411306 45.2869202,15.975718 C44.9324565,16.1108243 44.5357278,16.1778586 44.0962136,16.1778586 C43.1751284,16.1778586 42.4772356,15.9405406 42.0025353,15.4652819 C41.527835,14.9904382 41.2902767,14.4123451 41.2902767,13.731729 L41.2902767,11.4345068 C41.2902767,10.7538907 41.527835,10.1762127 42.0025353,9.70095397 C42.4772356,9.22600655 43.1751284,8.98837719 44.0962136,8.98837719 C44.5357278,8.98837719 44.9324565,9.05582657 45.2869202,9.1905178 C45.6409675,9.32541656 45.9457751,9.50618091 46.2011347,9.7329146 C46.4562861,9.95985582 46.6508508,10.222182 46.7857656,10.5198932 C46.920264,10.8177082 46.9878256,11.1227869 46.9878256,11.4345068 L46.9878256,13.731729 Z M38.0042262,22.0379647 C38.131958,21.6051472 38.3454691,21.2896916 38.6442388,21.0913904 C38.9431126,20.8925704 39.3020527,20.839441 39.7217877,20.9317948 C40.1412104,21.023941 40.5573019,21.3180203 40.9700621,21.8144478 L44.9177782,26.0686359 C44.7897341,26.1394059 44.6580464,26.2101758 44.5230274,26.2814647 C44.3875921,26.3522346 44.2419549,26.4088921 44.0855953,26.4515409 C43.488264,26.6217208 42.8691757,26.6712183 42.229059,26.6004483 C41.5889423,26.5293671 40.9877593,26.3557627 40.4259265,26.079324 C39.8639896,25.8028853 39.3730495,25.4444697 38.9536268,25.0051148 C38.5337877,24.5654486 38.2387656,24.0693325 38.0681442,23.5162476 C37.8974186,22.9631626 37.8760779,22.4703671 38.0042262,22.0379647 L38.0042262,22.0379647 Z M59.9402735,0.0547585208 L57.2514502,0.0547585208 L51.4898792,17.9007234 L53.9650874,17.9007234 L55.586876,12.7959467 L61.2843208,12.7959467 L62.799406,17.9007234 L65.2748224,17.9007234 L59.9402735,0.0547585208 Z M58.5317877,3.56440925 L60.6228634,10.6049832 L56.2697782,10.6049832 L58.5317877,3.56440925 Z" id="Fill-1" fill="#1D1C1B" mask="url(#mask-2)"></path>
                    </g>
                </g>
            </g>
        </g>
    </g>
</svg>