<?xml version="1.0" encoding="utf-8"?>
<!-- Generator: Adobe Illustrator 21.1.0, SVG Export Plug-In . SVG Version: 6.00 Build 0)  -->
<svg version="1.1" id="Layer_1" xmlns="http://www.w3.org/2000/svg" xmlns:xlink="http://www.w3.org/1999/xlink" x="0px" y="0px"
	 viewBox="0 0 541.3 425.5" style="enable-background:new 0 0 541.3 425.5;" xml:space="preserve">
<title>Artboard 1</title>
<g>
	<polygon points="94.6,131.1 20.8,131.1 20.8,0.2 0,0.2 0,151.2 94.6,151.2 	"/>
	<path d="M178.7,142.6l0.2,8.6h17.6v-90h-20.8v57.6c-0.6,4.9-3,9.4-6.7,12.7c-3.7,3.4-9.2,5.1-16.5,5.1c-7.7,0-13.5-2-17.2-6
		c-3.7-4-5.6-8.9-5.6-14.7V61.2h-20.8V116c0,5,0.7,9.9,2.1,14.7c1.3,4.6,3.7,8.9,6.8,12.6c3.3,3.8,7.3,6.8,11.9,8.9
		c4.8,2.3,10.6,3.4,17.5,3.4C160.4,155.5,171,151.2,178.7,142.6z"/>
	<path d="M305.1,151.2V96.5c0-5-0.7-9.9-2.2-14.7c-1.4-4.6-3.7-8.9-6.8-12.6c-3.3-3.8-7.3-6.9-11.9-8.9c-4.9-2.3-10.7-3.4-17.5-3.4
		c-13.3,0-23.8,4.3-31.5,13v-8.6h-17.6v90h20.8V93.6c0.6-4.9,2.9-9.4,6.6-12.7c3.7-3.4,9.2-5.1,16.5-5.1c7.8,0,13.5,2,17.3,6
		c3.8,4,5.6,8.9,5.6,14.7v54.7H305.1z"/>
	<path d="M406.7,199.5c1.8-8.9,2.6-17.9,2.4-27V61.2H392l-0.7,8.6c-3.9-4.2-8.6-7.5-13.8-9.6c-5.3-2.2-11.4-3.3-18.1-3.3
		c-6.8,0-12.7,1.1-17.6,3.4c-4.6,2.1-8.8,5.1-12.2,8.9c-3.2,3.7-5.5,8-7,12.6c-1.5,4.8-2.2,9.7-2.2,14.7V116c0,5,0.7,9.9,2.2,14.7
		c1.4,4.6,3.8,8.9,7,12.6c3.4,3.8,7.5,6.8,12.2,8.9c4.9,2.3,10.8,3.4,17.6,3.4c5.5,0,11.1-0.7,16.4-2.3c5.2-1.5,9.8-4.5,13.4-8.6
		v27.7c0,6.2-0.4,12.4-1.5,18.4c-1,5.6-2.5,10.3-4.6,14.2l-33-36.5c-4.3-4.8-8.9-8.1-13.7-10c-8.7-3.6-18.7-2.6-26.5,2.7
		c-3.9,2.7-7.2,6.2-9.6,10.3c-2.6,4.5-4.3,9.5-4.8,14.7c-0.7,5.5-0.1,11.4,1.8,17.6c2.1,7.5,6,14.4,11.2,20.2
		c5.1,5.7,11.2,10.3,18,13.8c6.7,3.4,14,5.6,21.5,6.5c7.4,0.9,14.8,0.2,21.9-1.9c5.2-1.6,10.2-4,14.8-7l12.4,13.5l14.5-12.2
		l-13.6-15.1C402,215.1,405,207.7,406.7,199.5z M388.3,116c0,2.7-0.6,5.4-1.7,7.8c-1.1,2.5-2.8,4.8-4.9,6.6c-2.2,2-4.8,3.5-7.5,4.6
		c-3.1,1.2-6.5,1.8-9.8,1.7c-7.6,0-13.4-2-17.3-6c-3.9-3.9-6-9.2-5.9-14.7V96.5c-0.1-5.5,2-10.8,5.9-14.7c3.9-4,9.7-6,17.3-6
		c3.4-0.1,6.7,0.5,9.8,1.7c2.8,1.1,5.3,2.6,7.6,4.6c2.1,1.9,3.7,4.1,4.8,6.7c1.1,2.4,1.7,5.1,1.7,7.8V116z M367.9,222.1L367.9,222.1
		c-1.1,0.6-2.3,1.1-3.6,1.4c-5,1.4-10.2,1.9-15.3,1.3c-5.2-0.6-10.2-2.1-14.9-4.4c-4.6-2.3-8.7-5.4-12.2-9.1
		c-3.4-3.6-5.9-7.9-7.3-12.6c-1.4-4.7-1.6-8.8-0.5-12.5c1.1-3.6,2.8-6.3,5.3-8c2.5-1.7,5.4-2.1,8.9-1.4c3.5,0.8,6.9,3.3,10.3,7.5
		l32.6,36C370.1,220.9,369,221.5,367.9,222.1z"/>
	<path d="M459.3,108h47.1l12.5,43.2h20.4l-44-151H473l-47.6,151h20.4L459.3,108z M483.6,29.9l17.3,59.6h-36L483.6,29.9z"/>
	<path d="M199.6,209.4c-32.9,0-51.3,21.3-51.3,52.2v32.2c0,30.9,18.3,52.2,51.3,52.2c33.1,0,50.7-21.3,50.7-52.2v-32.2
		C250.3,230.7,232.7,209.4,199.6,209.4z M229.1,293c0,20.9-8.2,33.8-29.6,33.8c-21.4,0-30.1-12.9-30.1-33.8v-30.7
		c0-20.9,8.7-33.8,30.1-33.8s29.6,12.9,29.6,33.8V293z"/>
	<polygon points="369.5,293.7 353.9,293.7 313.3,318.6 313.3,341.5 348.3,320.2 348.3,406.1 310,406.1 310,425.5 407.8,425.5 
		407.8,406.1 369.5,406.1 	"/>
	<path d="M70,299.4c19.1-15.8,30.6-28.5,30.6-47.3c0-20.2-13.9-41.6-46.8-41.6c-34.7,0-48.6,22.7-51.1,44.7h21.2
		c2.5-16.4,11.2-25.8,29.4-25.8c20.1,0,26.2,12.7,26.2,22.9c0,13.5-10.3,21.6-23.3,32.9L6.2,328.2v16.5H101v-19.5H38.6L70,299.4z"/>
	<path d="M488.9,209.6c-32.3,0-51.3,15.7-51.3,44c0,30.6,23,42.7,47.8,42.7c4.8,0,9.6-0.2,14.4-0.7l-36.3,48.7h24.8l36.1-50.9
		c8.2-11.5,16.8-23.2,16.8-41C541.3,225.7,521.8,209.6,488.9,209.6z M519.4,256.5c0,14.1-11.3,22.8-30.1,22.8
		c-18.6,0-29.9-9.1-29.9-22.8v-5.1c0-13.7,11.3-22.8,29.9-22.8c18.8,0,30.1,9.1,30.1,22.8V256.5z"/>
</g>
</svg>
