<svg id="Layer_1" data-name="Layer 1" xmlns="http://www.w3.org/2000/svg" viewBox="0 0 1080 851"><defs><style>.cls-1{fill:#fff;}</style></defs><title>Artboard 1</title><polygon class="cls-1" points="201.86 268.35 59.99 268.35 59.99 16.96 20.04 16.96 20.04 307.07 201.86 307.07 201.86 268.35"/><path class="cls-1" d="M363.42,290.47l.34,16.6h33.81V134.18h-40V244.83a39.45,39.45,0,0,1-12.82,24.38q-10.79,9.85-31.71,9.85-22.27,0-33.06-11.58T269.24,239.3V134.18h-40V239.3a98.29,98.29,0,0,0,4.07,28.18,65.81,65.81,0,0,0,13,24.2,67.17,67.17,0,0,0,22.87,17.12q13.89,6.56,33.53,6.57Q341.06,315.37,363.42,290.47Z"/><path class="cls-1" d="M606.14,307.07V202a94.79,94.79,0,0,0-4.23-28.18,69.56,69.56,0,0,0-13-24.2A65.22,65.22,0,0,0,566,132.45q-14.05-6.57-33.69-6.57-38.27,0-60.61,24.9v-16.6H437.86V307.07h40V196.42A39.71,39.71,0,0,1,490.51,172q10.66-9.85,31.66-9.85,22.35,0,33.18,11.58T566.19,202V307.07Z"/><path class="cls-1" d="M801.33,399.74a242.55,242.55,0,0,0,4.58-51.87V134.18H773.12l-1.37,16.6a74.85,74.85,0,0,0-26.59-18.5q-15.41-6.39-34.72-6.4-19.65,0-33.87,6.57a68.26,68.26,0,0,0-23.38,17.12,66.77,66.77,0,0,0-13.38,24.2A94.64,94.64,0,0,0,635.6,202V239.3a94.61,94.61,0,0,0,4.23,28.18,66.57,66.57,0,0,0,13.38,24.2,68.13,68.13,0,0,0,23.37,17.12q14.22,6.56,33.86,6.57A112.59,112.59,0,0,0,741.92,311a54.39,54.39,0,0,0,25.74-16.43v53.25a206,206,0,0,1-2.82,35.44Q762,399.4,756,410.46l-63.32-70.19q-12.53-13.83-26.24-19.19a53.74,53.74,0,0,0-51,5.19A60,60,0,0,0,597.06,346a72.64,72.64,0,0,0-9.31,28.18q-2,15.9,3.39,33.89a97.22,97.22,0,0,0,21.5,38.73,118.8,118.8,0,0,0,34.54,26.45,122.8,122.8,0,0,0,41.31,12.45A101.53,101.53,0,0,0,730.64,482a109.33,109.33,0,0,0,28.45-13.49l23.75,25.93L810.65,471l-26.11-29Q796.41,423.6,801.33,399.74ZM766,239.3a36.09,36.09,0,0,1-3.21,15A38.3,38.3,0,0,1,753.47,267,46.16,46.16,0,0,1,739,275.78a51.56,51.56,0,0,1-18.89,3.28q-21.92,0-33.22-11.58a38.85,38.85,0,0,1-11.3-28.18V202a38.86,38.86,0,0,1,11.3-28.18q11.3-11.58,33.22-11.58A51.68,51.68,0,0,1,739,165.48a46.31,46.31,0,0,1,14.51,8.82,37.9,37.9,0,0,1,9.28,12.79A36.53,36.53,0,0,1,766,202Zm-39.11,204a34.08,34.08,0,0,1-6.94,2.76,74.3,74.3,0,0,1-29.46,2.42A84.18,84.18,0,0,1,661.83,440a82.27,82.27,0,0,1-23.36-17.46,60.89,60.89,0,0,1-14.05-24.2q-4.06-13.49-1-24t10.16-15.39q7.11-4.85,17.1-2.6t19.81,14.35l62.64,69.16Q730.06,441.58,726.85,443.31Z"/><path class="cls-1" d="M902.4,224.09h90.4l24,83h39.28L971.48,17H928.81L837.39,307.07h39.28ZM949.13,74l33.18,114.45H913.24Z"/><path class="cls-1" d="M403.43,418.8c-63.29,0-98.52,40.87-98.52,100.26v61.84c0,59.39,35.23,100.26,98.52,100.26,63.63,0,97.49-40.87,97.49-100.26V519.06C500.93,459.67,467.06,418.8,403.43,418.8Zm56.79,160.7c0,40.18-15.74,65-56.79,65s-57.81-24.8-57.81-65v-59c0-40.18,16.76-65,57.81-65s56.79,24.8,56.79,65Z"/><polyline class="cls-1" points="621.87 672.64 689.26 631.77 689.26 796.66 615.71 796.66 615.71 834.04 803.51 834.04 803.51 796.66 729.96 796.66 729.96 580.76 699.86 580.76 621.87 628.62 621.87 672.64"/><path class="cls-1" d="M154.47,591.78c36.6-30.39,58.84-54.85,58.84-90.83,0-38.78-26.68-80-90-80-66.71,0-93.39,43.67-98.18,85.94H65.87c4.79-31.44,21.55-49.61,56.44-49.61,38.66,0,50.29,24.45,50.29,44,0,25.85-19.84,41.57-44.81,63.23L32,647v31.79H214V641.38H94.26Z"/><path class="cls-1" d="M959.37,419.3c-62,0-98.49,30.14-98.49,84.47,0,58.88,44.16,82,91.83,82a244,244,0,0,0,27.69-1.4L910.66,678h47.67l69.4-97.79c15.77-22.08,32.24-44.51,32.24-78.86C1060,450.14,1022.46,419.3,959.37,419.3Zm58.53,90.07c0,27-21.73,43.81-57.83,43.81-35.75,0-57.48-17.52-57.48-43.81v-9.81c0-26.29,21.73-43.81,57.48-43.81,36.1,0,57.83,17.52,57.83,43.81Z"/></svg>