<svg xmlns="http://www.w3.org/2000/svg" viewBox="0 0 214.77 50.04"><title>lunga-school</title><g id="Layer_2" data-name="Layer 2"><g id="Layer_1-2" data-name="Layer 1"><path d="M38.38,15.73H30.45c-.93-5.6-3.6-8.8-11.26-8.8-8.26,0-10.66,3.73-10.66,7.26,0,3,1.67,4.8,6.33,5.86L26,22.66c7.26,1.67,13.13,4.93,13.13,13.26C39.11,45.38,31.65,50,20.32,50,6.66,50,1,43.25,0,34.32H7.8c1.53,6.2,6.2,8.8,12.73,8.8,4.73,0,10.66-1.4,10.66-6.73,0-3.86-3.06-5.26-7.46-6.33l-11.4-2.73C4.46,25.45.6,21.32.6,14.46.6,6.26,6,0,19.06,0,32.78,0,37.85,6.93,38.38,15.73Z"/><path d="M45.78,35.12v-5.2C45.78,23.46,49.71,15,62.24,15,73.83,15,78,22.52,78.36,28.79H70.5c-.47-4.4-2.93-7.2-8.26-7.2-6.13,0-8.6,3.46-8.6,8.66v4.53c0,5.06,2.47,8.66,8.6,8.66,5.26,0,7.73-2.87,8.26-7.06h7.86C77.9,42.65,73.77,50,62.24,50,49.71,50,45.78,41.58,45.78,35.12Z"/><path d="M85.76.87h7.8V20.26c2.2-3.07,5.73-5.26,11.13-5.26,9.33,0,14.06,6.53,14.06,13.66V49.18h-7.8V29.92c0-5.33-2.67-8.33-8.33-8.33-6.13,0-9.06,3.53-9.06,9.26V49.18h-7.8Z"/><path d="M125.88,35.12v-5.2c0-6.46,4-14.93,16.66-14.93s16.66,8.46,16.66,14.93v5.2c0,6.46-4,14.93-16.66,14.93S125.88,41.58,125.88,35.12Zm25.45-.33V30.25c0-5.2-2.53-8.66-8.8-8.66s-8.8,3.46-8.8,8.66v4.53c0,5.06,2.53,8.66,8.8,8.66S151.33,39.85,151.33,34.78Z"/><path d="M165.86,35.12v-5.2c0-6.46,4-14.93,16.66-14.93s16.66,8.46,16.66,14.93v5.2c0,6.46-4,14.93-16.66,14.93S165.86,41.58,165.86,35.12Zm25.46-.33V30.25c0-5.2-2.53-8.66-8.8-8.66s-8.8,3.46-8.8,8.66v4.53c0,5.06,2.53,8.66,8.8,8.66S191.31,39.85,191.31,34.78Z"/><path d="M207,.87h7.8V49.18H207Z"/></g></g></svg>