<svg xmlns="http://www.w3.org/2000/svg" viewBox="0 0 554.69 65.5"><title>lunga-euf</title><g id="Layer_2" data-name="Layer 2"><g id="Layer_1-2" data-name="Layer 1"><path d="M7.93,41.91H35.18v7.26H0V.87H7.93Z"/><path d="M40.58,36.38V15.86h7.8V35.12c0,5.33,2.67,8.33,8.33,8.33,6.13,0,9.06-3.53,9.06-9.26V15.86h7.8V49.18H66l-.07-4.6C63.7,47.78,60.17,50,54.64,50,45.31,50,40.58,43.51,40.58,36.38Z"/><path d="M115.42,28.65V49.18h-7.8V29.92c0-5.33-2.67-8.33-8.33-8.33-6.13,0-9.06,3.53-9.06,9.26V49.18h-7.8V15.86H90l.07,4.6c2.2-3.2,5.73-5.46,11.26-5.46C110.68,15,115.42,21.52,115.42,28.65Z"/><path d="M123.41,51.84h7.46c.4,5.66,4.06,7.33,9.13,7.33,5.66,0,8.53-3.66,8.53-8.93V45.51C146,48.31,142.94,50,137.81,50c-11.33,0-15.26-8.46-15.26-14.93v-5.2c0-6.46,3.8-14.93,15.46-14.93,5.26,0,8.4,1.87,10.53,4.73l.33-3.86h7v34c0,6.93-2.53,15.66-15.86,15.66C131.54,65.5,123.75,62.5,123.41,51.84ZM148,34.78V30.25c0-5.06-2.53-8.66-8.8-8.66s-8.8,3.6-8.8,8.66v4.53c0,5.2,2.53,8.66,8.8,8.66S148,40,148,34.78Z"/><path d="M193.58,37.18H172.92l-4.53,12h-7.6L178.85.87h8.8l18.06,48.31h-7.6ZM191,30.32l-7.8-20.66-7.73,20.66Z"/><path d="M264.28.87V8.13H236.76V20.66h25.39v7.26H236.76v14h27.52v7.26H228.83V.87Z"/><path d="M272.48,30V.87h7.93V28.19c0,9.06,2.53,14.93,12.46,14.93s12.46-5.86,12.46-14.93V.87h7.93V30c0,10.4-3.6,20.06-20.39,20.06S272.48,40.38,272.48,30Z"/><path d="M357.11.87V8.13H331.85V21.32H355v7.26H331.85V49.18h-7.93V.87Z"/><path d="M417.88,42v7.13H382.43V43.11l18.66-15.73c4.86-4.13,8.73-7.13,8.73-12.06,0-3.73-2.27-8.4-9.79-8.4-6.8,0-10.06,3.46-11,9.46H381.1C382,8.33,387.23,0,400.22,0c12.33,0,17.53,7.86,17.53,15.26,0,6.86-4.33,11.53-11.46,17.33L394.56,42Z"/><path d="M427,30.92V19.12C427,7.8,433.87,0,446.2,0s19,7.8,19,19.12V30.92c0,11.33-6.6,19.12-19,19.12S427,42.25,427,30.92Zm30.25-.27V19.39C457.26,11.73,454.2,7,446.2,7s-11.26,4.73-11.26,12.39V30.65c0,7.66,3.27,12.39,11.26,12.39S457.26,38.32,457.26,30.65Z"/><path d="M474.32,42h14.33V10.6l-13.13,7.8V10L490.71.87h5.86V42h14.33v7.13H474.32Z"/><path d="M554.69,16.59V30.72c0,9.13-5,19.32-19.79,19.32-13.53,0-17.86-8.53-18.66-15.86H524c.67,4.86,3.6,8.93,10.93,8.93,7.13,0,12.19-3.86,12.19-12.33v-3.4c-1.73,2-5.4,5.06-12.33,5.06-9.13,0-18-5.26-18-15.26V15.26C516.77,6.06,524.1,0,535.7,0S554.69,6.06,554.69,16.59Zm-7.93-1.2c0-5.33-3.8-8.53-11.06-8.53s-11,3.2-11,8.53v1.67c0,5.26,3.8,8.46,11,8.46s11.06-3.2,11.06-8.46Z"/></g></g></svg>