<svg xmlns="http://www.w3.org/2000/svg" viewBox="0 0 241.09 49.18"><title>lunga-festival</title><g id="Layer_2" data-name="Layer 2"><g id="Layer_1-2" data-name="Layer 1"><path d="M33.18,0V7.26H7.93V20.46H31.05v7.26H7.93V48.31H0V0Z"/><path d="M71.3,34.65H46c.27,4.8,2.93,8.2,9.06,8.2,4.2,0,6.8-1.6,7.93-4.2h8c-1.53,5.26-6,10.53-15.93,10.53-12.53,0-16.59-8.4-16.59-14.93v-5.2c0-6.46,4.06-14.93,16.59-14.93S71.3,22.39,71.3,28.72Zm-7.46-5.93c0-4.93-2.53-8.26-8.73-8.26S46.25,23.79,46,28.72Z"/><path d="M77.63,37.78H84.9c.8,3.67,3.8,5.06,8.4,5.06s7-1.33,7-3.73c0-2-1.67-3.06-4.93-3.53l-7.2-1.07c-5-.73-9.6-3.53-9.6-9.53S83.1,14.13,92.49,14.13s13.59,5.06,14.39,11.39H99.62c-.6-3.4-3.07-4.93-7.2-4.93-3.8,0-6.6,1.27-6.6,4.13,0,1.33.6,2.73,4.4,3.27l7.6,1.07c6.13.87,9.8,4.2,9.8,9.79,0,7.93-7.2,10.33-14.59,10.33C82.9,49.18,78.37,44.65,77.63,37.78Z"/><path d="M137.14,21.72h-8.53V48.31h-7.73V21.72h-8.6V15h8.6V6.4h7.73V15h8.53Z"/><path d="M151.73,8.4h-8.6V0h8.6Zm-.4,39.91h-7.8V15h7.8Z"/><path d="M177.59,48.31h-8.53L156.06,15h7.8L173.19,39,182.12,15h7.8Z"/><path d="M193.38,39.51c0-7.33,6.33-10.53,13.66-11.06l10-.73V25.65c0-3.13-4.26-5.06-8.46-5.06-3.93,0-7.66,1.67-8.26,5.06h-7.4c.67-6,6.26-11.53,15.73-11.53s16.19,5.4,16.19,11.13V48.31H218l-.27-3.86C215,47.31,210,49.18,205,49.18,198.78,49.18,193.38,46.31,193.38,39.51ZM217,38.45v-4.4l-8.53.67c-5,.4-7.33,1.73-7.33,4.46,0,2.53,2.07,3.33,4.73,3.33C209.91,42.51,214.77,40.78,217,38.45Z"/><path d="M233.3,0h7.8V48.31h-7.8Z"/></g></g></svg>