<svg xmlns="http://www.w3.org/2000/svg" viewBox="0 0 222.1 49.18"><title>lunga-tumblr</title><g id="Layer_2" data-name="Layer 2"><g id="Layer_1-2" data-name="Layer 1"><path d="M40.58,0V7.06H23.92V48.31H16V7.06H0V0Z"/><path d="M40.58,35.52V15h7.8V34.25c0,5.33,2.67,8.33,8.33,8.33,6.13,0,9.06-3.53,9.06-9.26V15h7.8V48.31H66l-.07-4.6c-2.2,3.2-5.73,5.46-11.26,5.46C45.31,49.18,40.58,42.65,40.58,35.52Z"/><path d="M136.87,27.79V48.31h-7.8V29.05c0-5.33-2.4-8.33-7.26-8.33-5.6,0-8.26,3.53-8.26,9.26V48.31h-7.8V29.05c0-5.33-2.4-8.33-7.26-8.33-5.6,0-8.26,3.53-8.26,9.26V48.31h-7.8V15H90l.07,4.6c2.07-3.2,5.26-5.46,10.46-5.46A12.44,12.44,0,0,1,112,20.66c2.07-3.53,5.6-6.53,11.86-6.53C132.41,14.13,136.87,20.66,136.87,27.79Z"/><path d="M178.45,29.05v5.2c0,6.46-3.8,14.93-15.46,14.93-5.26,0-8.4-1.87-10.53-4.73l-.33,3.87h-7V0H153V18.66a12.27,12.27,0,0,1,10.19-4.53C174.52,14.13,178.45,22.59,178.45,29.05Zm-7.86.33c0-5.2-2.53-8.66-8.8-8.66s-8.8,3.46-8.8,8.66v4.53c0,5.06,2.53,8.66,8.8,8.66s8.8-3.6,8.8-8.66Z"/><path d="M186.25,0H194V48.31h-7.8Z"/><path d="M203,15h6.6v5.4a9,9,0,0,1,8.86-5.86c.73,0,2.53.07,3.67.13v7c-.93-.07-2.2-.2-3.4-.2-5.46,0-7.93,2.6-7.93,7.46V48.44H203Z"/></g></g></svg>